<svg xmlns="http://www.w3.org/2000/svg" width="1440" height="900"><path d="M792,413L822,482L971,367Z" fill="#61bf9a" stroke="#61bf9a" stroke-width="1.51"/><path d="M822,482L937,497L971,367Z" fill="#59bb92" stroke="#59bb92" stroke-width="1.51"/><path d="M971,367L799,230L792,413Z" fill="#6ec4a3" stroke="#6ec4a3" stroke-width="1.51"/><path d="M971,367L958,213L799,230Z" fill="#74c6a5" stroke="#74c6a5" stroke-width="1.51"/><path d="M822,482L807,625L937,497Z" fill="#55b88c" stroke="#55b88c" stroke-width="1.51"/><path d="M605,539L807,625L822,482Z" fill="#5bbc95" stroke="#5bbc95" stroke-width="1.51"/><path d="M1083,552L1123,377L971,367Z" fill="#53b386" stroke="#53b386" stroke-width="1.51"/><path d="M971,367L1098,233L958,213Z" fill="#6ec19b" stroke="#6ec19b" stroke-width="1.51"/><path d="M1083,552L971,367L937,497Z" fill="#51b587" stroke="#51b587" stroke-width="1.51"/><path d="M908,680L1083,552L937,497Z" fill="#47b07c" stroke="#47b07c" stroke-width="1.51"/><path d="M792,413L644,419L822,482Z" fill="#66c1a2" stroke="#66c1a2" stroke-width="1.51"/><path d="M650,223L644,419L792,413Z" fill="#77c9b0" stroke="#77c9b0" stroke-width="1.51"/><path d="M807,625L908,680L937,497Z" fill="#4cb381" stroke="#4cb381" stroke-width="1.51"/><path d="M1123,377L1098,233L971,367Z" fill="#63b990" stroke="#63b990" stroke-width="1.51"/><path d="M799,230L650,223L792,413Z" fill="#7ccbb2" stroke="#7ccbb2" stroke-width="1.51"/><path d="M670,125L650,223L799,230Z" fill="#8dd2bd" stroke="#8dd2bd" stroke-width="1.51"/><path d="M644,419L605,539L822,482Z" fill="#66c2a2" stroke="#66c2a2" stroke-width="1.51"/><path d="M807,625L831,845L908,680Z" fill="#44aa75" stroke="#44aa75" stroke-width="1.51"/><path d="M524,494L605,539L644,419Z" fill="#71c6a9" stroke="#71c6a9" stroke-width="1.51"/><path d="M958,213L834,91L799,230Z" fill="#85cdb0" stroke="#85cdb0" stroke-width="1.51"/><path d="M960,71L834,91L958,213Z" fill="#89cdaf" stroke="#89cdaf" stroke-width="1.51"/><path d="M1229,506L1229,409L1123,377Z" fill="#4da979" stroke="#4da979" stroke-width="1.51"/><path d="M908,680L1052,702L1083,552Z" fill="#3ea970" stroke="#3ea970" stroke-width="1.51"/><path d="M1123,377L1190,218L1098,233Z" fill="#67b78e" stroke="#67b78e" stroke-width="1.51"/><path d="M1229,506L1123,377L1083,552Z" fill="#49aa78" stroke="#49aa78" stroke-width="1.51"/><path d="M1102,87L960,71L958,213Z" fill="#85c9a7" stroke="#85c9a7" stroke-width="1.51"/><path d="M1194,669L1229,506L1083,552Z" fill="#3da36a" stroke="#3da36a" stroke-width="1.51"/><path d="M605,539L640,667L807,625Z" fill="#5bbb92" stroke="#5bbb92" stroke-width="1.51"/><path d="M908,680L966,817L1052,702Z" fill="#39a467" stroke="#39a467" stroke-width="1.51"/><path d="M1098,233L1102,87L958,213Z" fill="#7ac39e" stroke="#7ac39e" stroke-width="1.51"/><path d="M1229,409L1190,218L1123,377Z" fill="#5cb083" stroke="#5cb083" stroke-width="1.51"/><path d="M834,91L670,125L799,230Z" fill="#90d2bb" stroke="#90d2bb" stroke-width="1.51"/><path d="M485,256L525,386L650,223Z" fill="#8ed4c0" stroke="#8ed4c0" stroke-width="1.51"/><path d="M650,223L525,386L644,419Z" fill="#82ceb7" stroke="#82ceb7" stroke-width="1.51"/><path d="M605,539L506,633L640,667Z" fill="#65bf99" stroke="#65bf99" stroke-width="1.51"/><path d="M525,386L524,494L644,419Z" fill="#79cab1" stroke="#79cab1" stroke-width="1.51"/><path d="M1190,218L1102,87L1098,233Z" fill="#76bd96" stroke="#76bd96" stroke-width="1.51"/><path d="M1052,702L1194,669L1083,552Z" fill="#39a367" stroke="#39a367" stroke-width="1.51"/><path d="M831,845L966,817L908,680Z" fill="#3ca268" stroke="#3ca268" stroke-width="1.51"/><path d="M1052,702L1076,784L1194,669Z" fill="#339c5c" stroke="#339c5c" stroke-width="1.51"/><path d="M966,817L1076,784L1052,702Z" fill="#339c5d" stroke="#339c5d" stroke-width="1.51"/><path d="M350,414L372,557L524,494Z" fill="#83cdb4" stroke="#83cdb4" stroke-width="1.51"/><path d="M462,127L485,256L650,223Z" fill="#9dd9c9" stroke="#9dd9c9" stroke-width="1.51"/><path d="M669,834L831,845L807,625Z" fill="#47a875" stroke="#47a875" stroke-width="1.51"/><path d="M1190,218L1207,115L1102,87Z" fill="#7abc95" stroke="#7abc95" stroke-width="1.51"/><path d="M1352,204L1207,115L1190,218Z" fill="#70b58b" stroke="#70b58b" stroke-width="1.51"/><path d="M640,667L669,834L807,625Z" fill="#51b183" stroke="#51b183" stroke-width="1.51"/><path d="M524,494L506,633L605,539Z" fill="#6fc4a3" stroke="#6fc4a3" stroke-width="1.51"/><path d="M372,557L506,633L524,494Z" fill="#76c7a8" stroke="#76c7a8" stroke-width="1.51"/><path d="M1229,409L1341,358L1190,218Z" fill="#5aac7e" stroke="#5aac7e" stroke-width="1.51"/><path d="M1229,506L1341,358L1229,409Z" fill="#4aa574" stroke="#4aa574" stroke-width="1.51"/><path d="M1398,562L1341,358L1229,506Z" fill="#419f6b" stroke="#419f6b" stroke-width="1.51"/><path d="M834,91L767,-30L670,125Z" fill="#9bd6c2" stroke="#9bd6c2" stroke-width="1.51"/><path d="M670,125L462,127L650,223Z" fill="#9dd9c8" stroke="#9dd9c8" stroke-width="1.51"/><path d="M930,-97L767,-30L834,91Z" fill="#9bd5be" stroke="#9bd5be" stroke-width="1.51"/><path d="M930,-97L834,91L960,71Z" fill="#94d1b6" stroke="#94d1b6" stroke-width="1.51"/><path d="M930,-97L960,71L1073,-84Z" fill="#94cfb1" stroke="#94cfb1" stroke-width="1.51"/><path d="M475,827L669,834L640,667Z" fill="#58af81" stroke="#58af81" stroke-width="1.51"/><path d="M1341,358L1352,204L1190,218Z" fill="#62ae83" stroke="#62ae83" stroke-width="1.51"/><path d="M1073,-84L960,71L1102,87Z" fill="#8ccaa9" stroke="#8ccaa9" stroke-width="1.51"/><path d="M1073,-84L1102,87L1215,-35Z" fill="#8ac5a2" stroke="#8ac5a2" stroke-width="1.51"/><path d="M513,-14L462,127L670,125Z" fill="#acdfd2" stroke="#acdfd2" stroke-width="1.51"/><path d="M350,414L524,494L525,386Z" fill="#83ceb8" stroke="#83ceb8" stroke-width="1.51"/><path d="M620,-185L617,-24L767,-30Z" fill="#acded1" stroke="#acded1" stroke-width="1.51"/><path d="M767,-30L617,-24L670,125Z" fill="#a3dacb" stroke="#a3dacb" stroke-width="1.51"/><path d="M1215,-35L1102,87L1207,115Z" fill="#83c09a" stroke="#83c09a" stroke-width="1.51"/><path d="M1194,669L1398,562L1229,506Z" fill="#379c61" stroke="#379c61" stroke-width="1.51"/><path d="M1076,784L1213,831L1194,669Z" fill="#2c9452" stroke="#2c9452" stroke-width="1.51"/><path d="M1093,944L1213,831L1076,784Z" fill="#268e4b" stroke="#268e4b" stroke-width="1.51"/><path d="M1093,944L1076,784L966,817Z" fill="#2c9454" stroke="#2c9454" stroke-width="1.51"/><path d="M1387,697L1398,562L1194,669Z" fill="#2d9556" stroke="#2d9556" stroke-width="1.51"/><path d="M1341,358L1518,269L1352,204Z" fill="#5aa57b" stroke="#5aa57b" stroke-width="1.51"/><path d="M350,414L525,386L485,256Z" fill="#8fd4c1" stroke="#8fd4c1" stroke-width="1.51"/><path d="M475,827L648,919L669,834Z" fill="#53a879" stroke="#53a879" stroke-width="1.51"/><path d="M351,204L350,414L485,256Z" fill="#9edacb" stroke="#9edacb" stroke-width="1.51"/><path d="M1348,47L1215,-35L1207,115Z" fill="#80ba94" stroke="#80ba94" stroke-width="1.51"/><path d="M831,845L907,980L966,817Z" fill="#35995e" stroke="#35995e" stroke-width="1.51"/><path d="M669,834L764,964L831,845Z" fill="#419f6c" stroke="#419f6c" stroke-width="1.51"/><path d="M475,827L640,667L506,633Z" fill="#63b88e" stroke="#63b88e" stroke-width="1.51"/><path d="M648,919L764,964L669,834Z" fill="#459f6f" stroke="#459f6f" stroke-width="1.51"/><path d="M372,557L401,701L506,633Z" fill="#75c5a1" stroke="#75c5a1" stroke-width="1.51"/><path d="M462,127L351,204L485,256Z" fill="#a7ded1" stroke="#a7ded1" stroke-width="1.51"/><path d="M617,-24L513,-14L670,125Z" fill="#abded0" stroke="#abded0" stroke-width="1.51"/><path d="M620,-185L513,-14L617,-24Z" fill="#b4e1d7" stroke="#b4e1d7" stroke-width="1.51"/><path d="M764,964L907,980L831,845Z" fill="#379761" stroke="#379761" stroke-width="1.51"/><path d="M907,980L1093,944L966,817Z" fill="#2b9354" stroke="#2b9354" stroke-width="1.51"/><path d="M1213,831L1387,697L1194,669Z" fill="#28904d" stroke="#28904d" stroke-width="1.51"/><path d="M1394,814L1387,697L1213,831Z" fill="#208743" stroke="#208743" stroke-width="1.51"/><path d="M333,55L351,204L462,127Z" fill="#b6e4d9" stroke="#b6e4d9" stroke-width="1.51"/><path d="M401,701L475,827L506,633Z" fill="#6bba92" stroke="#6bba92" stroke-width="1.51"/><path d="M1524,119L1348,47L1352,204Z" fill="#71ae87" stroke="#71ae87" stroke-width="1.51"/><path d="M1352,204L1348,47L1207,115Z" fill="#76b58c" stroke="#76b58c" stroke-width="1.51"/><path d="M1398,562L1482,486L1341,358Z" fill="#3d9a68" stroke="#3d9a68" stroke-width="1.51"/><path d="M1494,643L1482,486L1398,562Z" fill="#30915a" stroke="#30915a" stroke-width="1.51"/><path d="M1482,486L1508,367L1341,358Z" fill="#469c6c" stroke="#469c6c" stroke-width="1.51"/><path d="M401,701L378,778L475,827Z" fill="#6cb78e" stroke="#6cb78e" stroke-width="1.51"/><path d="M475,827L508,974L648,919Z" fill="#56a579" stroke="#56a579" stroke-width="1.51"/><path d="M202,694L378,778L401,701Z" fill="#79bf99" stroke="#79bf99" stroke-width="1.51"/><path d="M202,694L401,701L372,557Z" fill="#7ec7a3" stroke="#7ec7a3" stroke-width="1.51"/><path d="M930,-97L750,-236L767,-30Z" fill="#a4d8c5" stroke="#a4d8c5" stroke-width="1.51"/><path d="M1073,-84L950,-237L930,-97Z" fill="#9ad2b5" stroke="#9ad2b5" stroke-width="1.51"/><path d="M1215,-35L1104,-178L1073,-84Z" fill="#90c7a5" stroke="#90c7a5" stroke-width="1.51"/><path d="M1214,-242L1104,-178L1215,-35Z" fill="#90c4a1" stroke="#90c4a1" stroke-width="1.51"/><path d="M351,204L251,382L350,414Z" fill="#a0dacb" stroke="#a0dacb" stroke-width="1.51"/><path d="M350,414L191,503L372,557Z" fill="#8ed1ba" stroke="#8ed1ba" stroke-width="1.51"/><path d="M1387,697L1494,643L1398,562Z" fill="#289052" stroke="#289052" stroke-width="1.51"/><path d="M1398,913L1394,814L1213,831Z" fill="#19813c" stroke="#19813c" stroke-width="1.51"/><path d="M1508,367L1518,269L1341,358Z" fill="#509f73" stroke="#509f73" stroke-width="1.51"/><path d="M1482,486L1622,363L1508,367Z" fill="#429468" stroke="#429468" stroke-width="1.51"/><path d="M1508,367L1622,363L1518,269Z" fill="#4d976f" stroke="#4d976f" stroke-width="1.51"/><path d="M1474,834L1494,643L1387,697Z" fill="#1f8545" stroke="#1f8545" stroke-width="1.51"/><path d="M1104,-178L950,-237L1073,-84Z" fill="#99ceaf" stroke="#99ceaf" stroke-width="1.51"/><path d="M750,-236L620,-185L767,-30Z" fill="#acddcf" stroke="#acddcf" stroke-width="1.51"/><path d="M513,-14L333,55L462,127Z" fill="#b9e5db" stroke="#b9e5db" stroke-width="1.51"/><path d="M1226,1086L1236,971L1093,944Z" fill="#177d3c" stroke="#177d3c" stroke-width="1.51"/><path d="M1093,944L1236,971L1213,831Z" fill="#1e8541" stroke="#1e8541" stroke-width="1.51"/><path d="M379,-97L333,55L513,-14Z" fill="#c0e7e0" stroke="#c0e7e0" stroke-width="1.51"/><path d="M351,204L240,213L251,382Z" fill="#ade0d4" stroke="#ade0d4" stroke-width="1.51"/><path d="M950,-237L750,-236L930,-97Z" fill="#a3d8c0" stroke="#a3d8c0" stroke-width="1.51"/><path d="M202,130L240,213L351,204Z" fill="#bae5db" stroke="#bae5db" stroke-width="1.51"/><path d="M404,988L508,974L475,827Z" fill="#5da77d" stroke="#5da77d" stroke-width="1.51"/><path d="M614,1099L755,1130L764,964Z" fill="#3b8e63" stroke="#3b8e63" stroke-width="1.51"/><path d="M940,1130L1049,1089L907,980Z" fill="#25844d" stroke="#25844d" stroke-width="1.51"/><path d="M1348,47L1386,-65L1215,-35Z" fill="#81b893" stroke="#81b893" stroke-width="1.51"/><path d="M1513,-59L1386,-65L1348,47Z" fill="#7db28e" stroke="#7db28e" stroke-width="1.51"/><path d="M907,980L1049,1089L1093,944Z" fill="#23884b" stroke="#23884b" stroke-width="1.51"/><path d="M940,1130L907,980L755,1130Z" fill="#2d8654" stroke="#2d8654" stroke-width="1.51"/><path d="M1518,269L1524,119L1352,204Z" fill="#64a67e" stroke="#64a67e" stroke-width="1.51"/><path d="M73,506L191,503L47,368Z" fill="#a0d9c7" stroke="#a0d9c7" stroke-width="1.51"/><path d="M251,382L191,503L350,414Z" fill="#98d6c3" stroke="#98d6c3" stroke-width="1.51"/><path d="M378,778L404,988L475,827Z" fill="#65ae84" stroke="#65ae84" stroke-width="1.51"/><path d="M1236,971L1398,913L1213,831Z" fill="#187f3b" stroke="#187f3b" stroke-width="1.51"/><path d="M1394,814L1474,834L1387,697Z" fill="#1b823f" stroke="#1b823f" stroke-width="1.51"/><path d="M1395,1100L1398,913L1236,971Z" fill="#0b7432" stroke="#0b7432" stroke-width="1.51"/><path d="M755,1130L907,980L764,964Z" fill="#348f5d" stroke="#348f5d" stroke-width="1.51"/><path d="M333,55L202,130L351,204Z" fill="#bfe7de" stroke="#bfe7de" stroke-width="1.51"/><path d="M503,-203L379,-97L513,-14Z" fill="#c1e7e1" stroke="#c1e7e1" stroke-width="1.51"/><path d="M503,-203L513,-14L620,-185Z" fill="#bae4dc" stroke="#bae4dc" stroke-width="1.51"/><path d="M1398,913L1474,834L1394,814Z" fill="#147b38" stroke="#147b38" stroke-width="1.51"/><path d="M750,-236L503,-203L620,-185Z" fill="#b7e2d6" stroke="#b7e2d6" stroke-width="1.51"/><path d="M614,1099L764,964L648,919Z" fill="#429869" stroke="#429869" stroke-width="1.51"/><path d="M950,-237L1214,-242L750,-236Z" fill="#a0d5b7" stroke="#a0d5b7" stroke-width="1.51"/><path d="M1104,-178L1214,-242L950,-237Z" fill="#99ccab" stroke="#99ccab" stroke-width="1.51"/><path d="M1362,-160L1214,-242L1215,-35Z" fill="#8cbe9a" stroke="#8cbe9a" stroke-width="1.51"/><path d="M1694,251L1624,77L1524,119Z" fill="#659b7a" stroke="#659b7a" stroke-width="1.51"/><path d="M1648,537L1622,363L1482,486Z" fill="#388c61" stroke="#388c61" stroke-width="1.51"/><path d="M1648,537L1482,486L1494,643Z" fill="#2f8b57" stroke="#2f8b57" stroke-width="1.51"/><path d="M508,974L614,1099L648,919Z" fill="#4b9b6f" stroke="#4b9b6f" stroke-width="1.51"/><path d="M191,503L202,694L372,557Z" fill="#8bceb0" stroke="#8bceb0" stroke-width="1.51"/><path d="M508,974L532,1139L614,1099Z" fill="#4c946d" stroke="#4c946d" stroke-width="1.51"/><path d="M240,213L112,255L251,382Z" fill="#b1e2d6" stroke="#b1e2d6" stroke-width="1.51"/><path d="M174,-86L202,130L333,55Z" fill="#ceede8" stroke="#ceede8" stroke-width="1.51"/><path d="M1386,-65L1362,-160L1215,-35Z" fill="#86ba96" stroke="#86ba96" stroke-width="1.51"/><path d="M1513,-59L1362,-160L1386,-65Z" fill="#82b491" stroke="#82b491" stroke-width="1.51"/><path d="M221,817L404,988L378,778Z" fill="#6eb289" stroke="#6eb289" stroke-width="1.51"/><path d="M940,1130L1226,1086L1049,1089Z" fill="#1d7840" stroke="#1d7840" stroke-width="1.51"/><path d="M1049,1089L1226,1086L1093,944Z" fill="#1b7c3f" stroke="#1b7c3f" stroke-width="1.51"/><path d="M1682,635L1648,537L1494,643Z" fill="#27834e" stroke="#27834e" stroke-width="1.51"/><path d="M202,694L221,817L378,778Z" fill="#7cbe97" stroke="#7cbe97" stroke-width="1.51"/><path d="M1624,77L1513,-59L1524,119Z" fill="#72a584" stroke="#72a584" stroke-width="1.51"/><path d="M1524,119L1513,-59L1348,47Z" fill="#77ae88" stroke="#77ae88" stroke-width="1.51"/><path d="M202,130L112,255L240,213Z" fill="#bee7de" stroke="#bee7de" stroke-width="1.51"/><path d="M191,503L84,628L202,694Z" fill="#90cfb1" stroke="#90cfb1" stroke-width="1.51"/><path d="M202,694L53,820L221,817Z" fill="#83bf9a" stroke="#83bf9a" stroke-width="1.51"/><path d="M183,1069L403,1054L404,988Z" fill="#64a17c" stroke="#64a17c" stroke-width="1.51"/><path d="M404,988L403,1054L508,974Z" fill="#5aa078" stroke="#5aa078" stroke-width="1.51"/><path d="M614,1099L532,1139L755,1130Z" fill="#418a64" stroke="#418a64" stroke-width="1.51"/><path d="M379,-97L174,-86L333,55Z" fill="#cdede8" stroke="#cdede8" stroke-width="1.51"/><path d="M202,130L90,61L112,255Z" fill="#c8ebe4" stroke="#c8ebe4" stroke-width="1.51"/><path d="M503,-203L381,-212L379,-97Z" fill="#c8eae4" stroke="#c8eae4" stroke-width="1.51"/><path d="M750,-236L381,-212L503,-203Z" fill="#bfe6dd" stroke="#bfe6dd" stroke-width="1.51"/><path d="M403,1054L532,1139L508,974Z" fill="#539973" stroke="#539973" stroke-width="1.51"/><path d="M755,1130L532,1139L940,1130Z" fill="#35845c" stroke="#35845c" stroke-width="1.51"/><path d="M1694,251L1524,119L1518,269Z" fill="#5d9b77" stroke="#5d9b77" stroke-width="1.51"/><path d="M1694,251L1518,269L1622,363Z" fill="#509470" stroke="#509470" stroke-width="1.51"/><path d="M1697,773L1682,635L1494,643Z" fill="#1f7a43" stroke="#1f7a43" stroke-width="1.51"/><path d="M1398,913L1532,913L1474,834Z" fill="#0d7633" stroke="#0d7633" stroke-width="1.51"/><path d="M1517,1086L1532,913L1398,913Z" fill="#026e2d" stroke="#026e2d" stroke-width="1.51"/><path d="M47,368L191,503L251,382Z" fill="#a2daca" stroke="#a2daca" stroke-width="1.51"/><path d="M1648,537L1694,251L1622,363Z" fill="#428b65" stroke="#428b65" stroke-width="1.51"/><path d="M1648,537L1682,635L1694,251Z" fill="#34835b" stroke="#34835b" stroke-width="1.51"/><path d="M1697,773L1494,643L1474,834Z" fill="#1a7b3e" stroke="#1a7b3e" stroke-width="1.51"/><path d="M73,506L84,628L191,503Z" fill="#98d4bb" stroke="#98d4bb" stroke-width="1.51"/><path d="M112,255L47,368L251,382Z" fill="#aee0d4" stroke="#aee0d4" stroke-width="1.51"/><path d="M-38,648L53,820L84,628Z" fill="#8fcaa9" stroke="#8fcaa9" stroke-width="1.51"/><path d="M940,1130L1395,1100L1226,1086Z" fill="#157036" stroke="#157036" stroke-width="1.51"/><path d="M1226,1086L1395,1100L1236,971Z" fill="#0f7132" stroke="#0f7132" stroke-width="1.51"/><path d="M403,1054L183,1069L532,1139Z" fill="#5d9977" stroke="#5d9977" stroke-width="1.51"/><path d="M221,817L186,922L404,988Z" fill="#72b088" stroke="#72b088" stroke-width="1.51"/><path d="M53,820L186,922L221,817Z" fill="#7eb992" stroke="#7eb992" stroke-width="1.51"/><path d="M200,-200L174,-86L379,-97Z" fill="#d7f0ee" stroke="#d7f0ee" stroke-width="1.51"/><path d="M112,255L-81,218L47,368Z" fill="#bbe5dd" stroke="#bbe5dd" stroke-width="1.51"/><path d="M174,-86L90,61L202,130Z" fill="#d3eeeb" stroke="#d3eeeb" stroke-width="1.51"/><path d="M1513,-59L1519,-235L1362,-160Z" fill="#83b18f" stroke="#83b18f" stroke-width="1.51"/><path d="M1362,-160L1519,-235L1214,-242Z" fill="#8ab995" stroke="#8ab995" stroke-width="1.51"/><path d="M1624,77L1658,-21L1513,-59Z" fill="#74a384" stroke="#74a384" stroke-width="1.51"/><path d="M1694,251L1658,-21L1624,77Z" fill="#6a9a7c" stroke="#6a9a7c" stroke-width="1.51"/><path d="M1682,635L1697,773L1694,251Z" fill="#2b7e51" stroke="#2b7e51" stroke-width="1.51"/><path d="M1532,913L1697,773L1474,834Z" fill="#107233" stroke="#107233" stroke-width="1.51"/><path d="M1618,936L1697,773L1532,913Z" fill="#0c6b2f" stroke="#0c6b2f" stroke-width="1.51"/><path d="M1517,1086L1618,936L1532,913Z" fill="#01672a" stroke="#01672a" stroke-width="1.51"/><path d="M1644,-169L1519,-235L1513,-59Z" fill="#7faa8a" stroke="#7faa8a" stroke-width="1.51"/><path d="M174,-86L54,-11L90,61Z" fill="#d9f1ef" stroke="#d9f1ef" stroke-width="1.51"/><path d="M381,-212L200,-200L379,-97Z" fill="#d2eeea" stroke="#d2eeea" stroke-width="1.51"/><path d="M1395,1100L1517,1086L1398,913Z" fill="#036a2c" stroke="#036a2c" stroke-width="1.51"/><path d="M84,628L53,820L202,694Z" fill="#8ac7a4" stroke="#8ac7a4" stroke-width="1.51"/><path d="M-38,648L84,628L73,506Z" fill="#98d2b8" stroke="#98d2b8" stroke-width="1.51"/><path d="M105,-210L54,-11L174,-86Z" fill="#def3f3" stroke="#def3f3" stroke-width="1.51"/><path d="M90,61L-41,115L112,255Z" fill="#cdece7" stroke="#cdece7" stroke-width="1.51"/><path d="M1658,-21L1644,-169L1513,-59Z" fill="#79a487" stroke="#79a487" stroke-width="1.51"/><path d="M1694,251L1644,-169L1658,-21Z" fill="#709c80" stroke="#709c80" stroke-width="1.51"/><path d="M-69,490L73,506L47,368Z" fill="#a5dacb" stroke="#a5dacb" stroke-width="1.51"/><path d="M-69,490L-38,648L73,506Z" fill="#9ed6c0" stroke="#9ed6c0" stroke-width="1.51"/><path d="M-88,391L-69,490L47,368Z" fill="#acded1" stroke="#acded1" stroke-width="1.51"/><path d="M186,922L183,1069L404,988Z" fill="#6ea983" stroke="#6ea983" stroke-width="1.51"/><path d="M93,993L183,1069L186,922Z" fill="#75ac87" stroke="#75ac87" stroke-width="1.51"/><path d="M93,993L186,922L53,820Z" fill="#7db48f" stroke="#7db48f" stroke-width="1.51"/><path d="M54,-11L-41,115L90,61Z" fill="#d8f1ef" stroke="#d8f1ef" stroke-width="1.51"/><path d="M-81,218L-88,391L47,368Z" fill="#b8e3db" stroke="#b8e3db" stroke-width="1.51"/><path d="M-76,955L93,993L53,820Z" fill="#81b591" stroke="#81b591" stroke-width="1.51"/><path d="M-41,115L-81,218L112,255Z" fill="#c8eae6" stroke="#c8eae6" stroke-width="1.51"/><path d="M54,-11L-113,-28L-41,115Z" fill="#ddf2f3" stroke="#ddf2f3" stroke-width="1.51"/><path d="M200,-200L105,-210L174,-86Z" fill="#e0f3f2" stroke="#e0f3f2" stroke-width="1.51"/><path d="M381,-212L105,-210L200,-200Z" fill="#ddf3f0" stroke="#ddf3f0" stroke-width="1.51"/><path d="M750,-236L105,-210L381,-212Z" fill="#ccebe5" stroke="#ccebe5" stroke-width="1.51"/><path d="M-38,648L-80,774L53,820Z" fill="#8fc6a4" stroke="#8fc6a4" stroke-width="1.51"/><path d="M-222,634L-80,774L-38,648Z" fill="#97cdae" stroke="#97cdae" stroke-width="1.51"/><path d="M-173,563L-38,648L-69,490Z" fill="#a0d6bf" stroke="#a0d6bf" stroke-width="1.51"/><path d="M1395,1100L1646,1134L1517,1086Z" fill="#005c25" stroke="#005c25" stroke-width="1.51"/><path d="M1517,1086L1646,1134L1618,936Z" fill="#005c25" stroke="#005c25" stroke-width="1.51"/><path d="M1618,936L1646,1134L1697,773Z" fill="#046229" stroke="#046229" stroke-width="1.51"/><path d="M940,1130L1646,1134L1395,1100Z" fill="#0a672d" stroke="#0a672d" stroke-width="1.51"/><path d="M532,1139L1646,1134L940,1130Z" fill="#1e7742" stroke="#1e7742" stroke-width="1.51"/><path d="M93,993L105,1113L183,1069Z" fill="#73a484" stroke="#73a484" stroke-width="1.51"/><path d="M183,1069L105,1113L532,1139Z" fill="#679a7b" stroke="#679a7b" stroke-width="1.51"/><path d="M-87,1137L105,1113L93,993Z" fill="#76a385" stroke="#76a385" stroke-width="1.51"/><path d="M-191,422L-69,490L-88,391Z" fill="#added0" stroke="#added0" stroke-width="1.51"/><path d="M-191,422L-173,563L-69,490Z" fill="#a8dbc9" stroke="#a8dbc9" stroke-width="1.51"/><path d="M-181,217L-81,218L-181,78Z" fill="#d1eeea" stroke="#d1eeea" stroke-width="1.51"/><path d="M-181,217L-88,391L-81,218Z" fill="#c2e7e1" stroke="#c2e7e1" stroke-width="1.51"/><path d="M-181,217L-191,422L-88,391Z" fill="#bae4da" stroke="#bae4da" stroke-width="1.51"/><path d="M-181,78L-81,218L-41,115Z" fill="#d5efec" stroke="#d5efec" stroke-width="1.51"/><path d="M-113,-171L-113,-28L54,-11Z" fill="#e5f5f8" stroke="#e5f5f8" stroke-width="1.51"/><path d="M-198,829L-76,955L-80,774Z" fill="#8bbd99" stroke="#8bbd99" stroke-width="1.51"/><path d="M-80,774L-76,955L53,820Z" fill="#88bc98" stroke="#88bc98" stroke-width="1.51"/><path d="M-113,-28L-181,78L-41,115Z" fill="#def3f2" stroke="#def3f2" stroke-width="1.51"/><path d="M-223,-26L-222,634L-191,422Z" fill="#bde5db" stroke="#bde5db" stroke-width="1.51"/><path d="M-173,563L-222,634L-38,648Z" fill="#9ed5b9" stroke="#9ed5b9" stroke-width="1.51"/><path d="M-191,422L-222,634L-173,563Z" fill="#a6d9c3" stroke="#a6d9c3" stroke-width="1.51"/><path d="M-223,-26L-191,422L-181,217Z" fill="#cfede7" stroke="#cfede7" stroke-width="1.51"/><path d="M105,-210L-113,-171L54,-11Z" fill="#e5f5f7" stroke="#e5f5f7" stroke-width="1.51"/><path d="M-113,-28L-223,-26L-181,78Z" fill="#e3f5f5" stroke="#e3f5f5" stroke-width="1.51"/><path d="M-222,634L-198,829L-80,774Z" fill="#94c8a6" stroke="#94c8a6" stroke-width="1.51"/><path d="M-181,78L-223,-26L-181,217Z" fill="#def3f1" stroke="#def3f1" stroke-width="1.51"/><path d="M-113,-171L-223,-26L-113,-28Z" fill="#e8f6f9" stroke="#e8f6f9" stroke-width="1.51"/><path d="M-76,955L-87,1137L93,993Z" fill="#7cab8b" stroke="#7cab8b" stroke-width="1.51"/><path d="M-198,829L-185,978L-76,955Z" fill="#88b794" stroke="#88b794" stroke-width="1.51"/><path d="M-228,1061L-185,978L-198,829Z" fill="#87b692" stroke="#87b692" stroke-width="1.51"/><path d="M-185,978L-87,1137L-76,955Z" fill="#80ac8c" stroke="#80ac8c" stroke-width="1.51"/><path d="M105,1113L-87,1137L532,1139Z" fill="#6c9a7d" stroke="#6c9a7d" stroke-width="1.51"/><path d="M-113,-171L-228,-218L-223,-26Z" fill="#edf8fb" stroke="#edf8fb" stroke-width="1.51"/><path d="M-223,-26L-228,-218L-222,634Z" fill="#daf1ed" stroke="#daf1ed" stroke-width="1.51"/><path d="M105,-210L-228,-218L-113,-171Z" fill="#ecf8fb" stroke="#ecf8fb" stroke-width="1.51"/><path d="M750,-236L-228,-218L105,-210Z" fill="#e0f3f1" stroke="#e0f3f1" stroke-width="1.51"/><path d="M-185,978L-228,1061L-87,1137Z" fill="#7fa98a" stroke="#7fa98a" stroke-width="1.51"/><path d="M-222,634L-228,1061L-198,829Z" fill="#8fc09b" stroke="#8fc09b" stroke-width="1.51"/><path d="M-228,-218L-228,1061L-222,634Z" fill="#acdcc9" stroke="#acdcc9" stroke-width="1.51"/></svg>