<svg xmlns="http://www.w3.org/2000/svg" width="1440" height="900"><path d="M792,413L822,482L971,367Z" fill="#4e0d7f" stroke="#4e0d7f" stroke-width="1.51"/><path d="M822,482L937,497L971,367Z" fill="#4e0d7f" stroke="#4e0d7f" stroke-width="1.51"/><path d="M971,367L799,230L792,413Z" fill="#521086" stroke="#521086" stroke-width="1.51"/><path d="M971,367L958,213L799,230Z" fill="#57138f" stroke="#57138f" stroke-width="1.51"/><path d="M822,482L807,625L937,497Z" fill="#500e81" stroke="#500e81" stroke-width="1.51"/><path d="M605,539L807,625L822,482Z" fill="#4d0c7d" stroke="#4d0c7d" stroke-width="1.51"/><path d="M1083,552L1123,377L971,367Z" fill="#541086" stroke="#541086" stroke-width="1.51"/><path d="M971,367L1098,233L958,213Z" fill="#5a1593" stroke="#5a1593" stroke-width="1.51"/><path d="M1083,552L971,367L937,497Z" fill="#520f84" stroke="#520f84" stroke-width="1.51"/><path d="M908,680L1083,552L937,497Z" fill="#561189" stroke="#561189" stroke-width="1.51"/><path d="M792,413L644,419L822,482Z" fill="#4a0b79" stroke="#4a0b79" stroke-width="1.51"/><path d="M650,223L644,419L792,413Z" fill="#4e0e81" stroke="#4e0e81" stroke-width="1.51"/><path d="M807,625L908,680L937,497Z" fill="#540f86" stroke="#540f86" stroke-width="1.51"/><path d="M1123,377L1098,233L971,367Z" fill="#591390" stroke="#591390" stroke-width="1.51"/><path d="M799,230L650,223L792,413Z" fill="#511086" stroke="#511086" stroke-width="1.51"/><path d="M670,125L650,223L799,230Z" fill="#55138f" stroke="#55138f" stroke-width="1.51"/><path d="M644,419L605,539L822,482Z" fill="#4b0b7a" stroke="#4b0b7a" stroke-width="1.51"/><path d="M807,625L831,845L908,680Z" fill="#58118c" stroke="#58118c" stroke-width="1.51"/><path d="M524,494L605,539L644,419Z" fill="#4f0e81" stroke="#4f0e81" stroke-width="1.51"/><path d="M958,213L834,91L799,230Z" fill="#5a1595" stroke="#5a1595" stroke-width="1.51"/><path d="M960,71L834,91L958,213Z" fill="#5e189c" stroke="#5e189c" stroke-width="1.51"/><path d="M1229,506L1229,409L1123,377Z" fill="#58128c" stroke="#58128c" stroke-width="1.51"/><path d="M908,680L1052,702L1083,552Z" fill="#5a138e" stroke="#5a138e" stroke-width="1.51"/><path d="M1123,377L1190,218L1098,233Z" fill="#5e1698" stroke="#5e1698" stroke-width="1.51"/><path d="M1229,506L1123,377L1083,552Z" fill="#57118a" stroke="#57118a" stroke-width="1.51"/><path d="M1102,87L960,71L958,213Z" fill="#6119a0" stroke="#6119a0" stroke-width="1.51"/><path d="M1194,669L1229,506L1083,552Z" fill="#5c1491" stroke="#5c1491" stroke-width="1.51"/><path d="M605,539L640,667L807,625Z" fill="#500f83" stroke="#500f83" stroke-width="1.51"/><path d="M908,680L966,817L1052,702Z" fill="#5c1492" stroke="#5c1492" stroke-width="1.51"/><path d="M1098,233L1102,87L958,213Z" fill="#60189d" stroke="#60189d" stroke-width="1.51"/><path d="M1229,409L1190,218L1123,377Z" fill="#5c1594" stroke="#5c1594" stroke-width="1.51"/><path d="M834,91L670,125L799,230Z" fill="#581494" stroke="#581494" stroke-width="1.51"/><path d="M485,256L525,386L650,223Z" fill="#561390" stroke="#561390" stroke-width="1.51"/><path d="M650,223L525,386L644,419Z" fill="#511087" stroke="#511087" stroke-width="1.51"/><path d="M605,539L506,633L640,667Z" fill="#551089" stroke="#551089" stroke-width="1.51"/><path d="M525,386L524,494L644,419Z" fill="#4f0e82" stroke="#4f0e82" stroke-width="1.51"/><path d="M1190,218L1102,87L1098,233Z" fill="#6219a0" stroke="#6219a0" stroke-width="1.51"/><path d="M1052,702L1194,669L1083,552Z" fill="#5d1492" stroke="#5d1492" stroke-width="1.51"/><path d="M831,845L966,817L908,680Z" fill="#5c1492" stroke="#5c1492" stroke-width="1.51"/><path d="M1052,702L1076,784L1194,669Z" fill="#601696" stroke="#601696" stroke-width="1.51"/><path d="M966,817L1076,784L1052,702Z" fill="#601696" stroke="#601696" stroke-width="1.51"/><path d="M350,414L372,557L524,494Z" fill="#54128c" stroke="#54128c" stroke-width="1.51"/><path d="M462,127L485,256L650,223Z" fill="#5a1799" stroke="#5a1799" stroke-width="1.51"/><path d="M669,834L831,845L807,625Z" fill="#58128b" stroke="#58128b" stroke-width="1.51"/><path d="M1190,218L1207,115L1102,87Z" fill="#651ba5" stroke="#651ba5" stroke-width="1.51"/><path d="M1352,204L1207,115L1190,218Z" fill="#661aa6" stroke="#661aa6" stroke-width="1.51"/><path d="M640,667L669,834L807,625Z" fill="#541087" stroke="#541087" stroke-width="1.51"/><path d="M524,494L506,633L605,539Z" fill="#531188" stroke="#531188" stroke-width="1.51"/><path d="M372,557L506,633L524,494Z" fill="#56138d" stroke="#56138d" stroke-width="1.51"/><path d="M1229,409L1341,358L1190,218Z" fill="#5f1698" stroke="#5f1698" stroke-width="1.51"/><path d="M1229,506L1341,358L1229,409Z" fill="#5a1390" stroke="#5a1390" stroke-width="1.51"/><path d="M1398,562L1341,358L1229,506Z" fill="#5c1492" stroke="#5c1492" stroke-width="1.51"/><path d="M834,91L767,-30L670,125Z" fill="#5b179b" stroke="#5b179b" stroke-width="1.51"/><path d="M670,125L462,127L650,223Z" fill="#5a1799" stroke="#5a1799" stroke-width="1.51"/><path d="M930,-97L767,-30L834,91Z" fill="#611ba6" stroke="#611ba6" stroke-width="1.51"/><path d="M930,-97L834,91L960,71Z" fill="#621ba6" stroke="#621ba6" stroke-width="1.51"/><path d="M930,-97L960,71L1073,-84Z" fill="#681eae" stroke="#681eae" stroke-width="1.51"/><path d="M475,827L669,834L640,667Z" fill="#5b1492" stroke="#5b1492" stroke-width="1.51"/><path d="M1341,358L1352,204L1190,218Z" fill="#6319a0" stroke="#6319a0" stroke-width="1.51"/><path d="M1073,-84L960,71L1102,87Z" fill="#671dab" stroke="#671dab" stroke-width="1.51"/><path d="M1073,-84L1102,87L1215,-35Z" fill="#6b1fb2" stroke="#6b1fb2" stroke-width="1.51"/><path d="M513,-14L462,127L670,125Z" fill="#5f1aa4" stroke="#5f1aa4" stroke-width="1.51"/><path d="M350,414L524,494L525,386Z" fill="#521188" stroke="#521188" stroke-width="1.51"/><path d="M620,-185L617,-24L767,-30Z" fill="#631caa" stroke="#631caa" stroke-width="1.51"/><path d="M767,-30L617,-24L670,125Z" fill="#5d199f" stroke="#5d199f" stroke-width="1.51"/><path d="M1215,-35L1102,87L1207,115Z" fill="#691eae" stroke="#691eae" stroke-width="1.51"/><path d="M1194,669L1398,562L1229,506Z" fill="#5f1596" stroke="#5f1596" stroke-width="1.51"/><path d="M1076,784L1213,831L1194,669Z" fill="#64179c" stroke="#64179c" stroke-width="1.51"/><path d="M1093,944L1213,831L1076,784Z" fill="#6619a0" stroke="#6619a0" stroke-width="1.51"/><path d="M1093,944L1076,784L966,817Z" fill="#64179c" stroke="#64179c" stroke-width="1.51"/><path d="M1387,697L1398,562L1194,669Z" fill="#63189b" stroke="#63189b" stroke-width="1.51"/><path d="M1341,358L1518,269L1352,204Z" fill="#661aa3" stroke="#661aa3" stroke-width="1.51"/><path d="M350,414L525,386L485,256Z" fill="#561390" stroke="#561390" stroke-width="1.51"/><path d="M475,827L648,919L669,834Z" fill="#5e1696" stroke="#5e1696" stroke-width="1.51"/><path d="M351,204L350,414L485,256Z" fill="#5a179a" stroke="#5a179a" stroke-width="1.51"/><path d="M1348,47L1215,-35L1207,115Z" fill="#6c1fb3" stroke="#6c1fb3" stroke-width="1.51"/><path d="M831,845L907,980L966,817Z" fill="#611698" stroke="#611698" stroke-width="1.51"/><path d="M669,834L764,964L831,845Z" fill="#5c1492" stroke="#5c1492" stroke-width="1.51"/><path d="M475,827L640,667L506,633Z" fill="#5a1391" stroke="#5a1391" stroke-width="1.51"/><path d="M648,919L764,964L669,834Z" fill="#5d1593" stroke="#5d1593" stroke-width="1.51"/><path d="M372,557L401,701L506,633Z" fill="#5a1594" stroke="#5a1594" stroke-width="1.51"/><path d="M462,127L351,204L485,256Z" fill="#5e19a0" stroke="#5e19a0" stroke-width="1.51"/><path d="M617,-24L513,-14L670,125Z" fill="#601ba4" stroke="#601ba4" stroke-width="1.51"/><path d="M620,-185L513,-14L617,-24Z" fill="#651eaf" stroke="#651eaf" stroke-width="1.51"/><path d="M764,964L907,980L831,845Z" fill="#611698" stroke="#611698" stroke-width="1.51"/><path d="M907,980L1093,944L966,817Z" fill="#65189d" stroke="#65189d" stroke-width="1.51"/><path d="M1213,831L1387,697L1194,669Z" fill="#65199e" stroke="#65199e" stroke-width="1.51"/><path d="M1394,814L1387,697L1213,831Z" fill="#691ba4" stroke="#691ba4" stroke-width="1.51"/><path d="M333,55L351,204L462,127Z" fill="#621ca9" stroke="#621ca9" stroke-width="1.51"/><path d="M401,701L475,827L506,633Z" fill="#5d1698" stroke="#5d1698" stroke-width="1.51"/><path d="M1524,119L1348,47L1352,204Z" fill="#6d1fb2" stroke="#6d1fb2" stroke-width="1.51"/><path d="M1352,204L1348,47L1207,115Z" fill="#6a1dad" stroke="#6a1dad" stroke-width="1.51"/><path d="M1398,562L1482,486L1341,358Z" fill="#5f1595" stroke="#5f1595" stroke-width="1.51"/><path d="M1494,643L1482,486L1398,562Z" fill="#64189d" stroke="#64189d" stroke-width="1.51"/><path d="M1482,486L1508,367L1341,358Z" fill="#61169a" stroke="#61169a" stroke-width="1.51"/><path d="M401,701L378,778L475,827Z" fill="#61189d" stroke="#61189d" stroke-width="1.51"/><path d="M475,827L508,974L648,919Z" fill="#62189d" stroke="#62189d" stroke-width="1.51"/><path d="M202,694L378,778L401,701Z" fill="#6119a0" stroke="#6119a0" stroke-width="1.51"/><path d="M202,694L401,701L372,557Z" fill="#5f189c" stroke="#5f189c" stroke-width="1.51"/><path d="M930,-97L750,-236L767,-30Z" fill="#661eaf" stroke="#661eaf" stroke-width="1.51"/><path d="M1073,-84L950,-237L930,-97Z" fill="#6c21b8" stroke="#6c21b8" stroke-width="1.51"/><path d="M1215,-35L1104,-178L1073,-84Z" fill="#6f22ba" stroke="#6f22ba" stroke-width="1.51"/><path d="M1214,-242L1104,-178L1215,-35Z" fill="#7324c1" stroke="#7324c1" stroke-width="1.51"/><path d="M351,204L251,382L350,414Z" fill="#5b179b" stroke="#5b179b" stroke-width="1.51"/><path d="M350,414L191,503L372,557Z" fill="#581594" stroke="#581594" stroke-width="1.51"/><path d="M1387,697L1494,643L1398,562Z" fill="#66199f" stroke="#66199f" stroke-width="1.51"/><path d="M1398,913L1394,814L1213,831Z" fill="#6d1ca9" stroke="#6d1ca9" stroke-width="1.51"/><path d="M1508,367L1518,269L1341,358Z" fill="#6519a1" stroke="#6519a1" stroke-width="1.51"/><path d="M1482,486L1622,363L1508,367Z" fill="#64189d" stroke="#64189d" stroke-width="1.51"/><path d="M1508,367L1622,363L1518,269Z" fill="#681aa5" stroke="#681aa5" stroke-width="1.51"/><path d="M1474,834L1494,643L1387,697Z" fill="#6b1ba6" stroke="#6b1ba6" stroke-width="1.51"/><path d="M1104,-178L950,-237L1073,-84Z" fill="#6f22bd" stroke="#6f22bd" stroke-width="1.51"/><path d="M750,-236L620,-185L767,-30Z" fill="#641dae" stroke="#641dae" stroke-width="1.51"/><path d="M513,-14L333,55L462,127Z" fill="#641dad" stroke="#641dad" stroke-width="1.51"/><path d="M1226,1086L1236,971L1093,944Z" fill="#6f1dab" stroke="#6f1dab" stroke-width="1.51"/><path d="M1093,944L1236,971L1213,831Z" fill="#6b1ba6" stroke="#6b1ba6" stroke-width="1.51"/><path d="M379,-97L333,55L513,-14Z" fill="#6820b6" stroke="#6820b6" stroke-width="1.51"/><path d="M351,204L240,213L251,382Z" fill="#601aa4" stroke="#601aa4" stroke-width="1.51"/><path d="M950,-237L750,-236L930,-97Z" fill="#6b21b8" stroke="#6b21b8" stroke-width="1.51"/><path d="M202,130L240,213L351,204Z" fill="#641dac" stroke="#641dac" stroke-width="1.51"/><path d="M404,988L508,974L475,827Z" fill="#661aa4" stroke="#661aa4" stroke-width="1.51"/><path d="M614,1099L755,1130L764,964Z" fill="#63179c" stroke="#63179c" stroke-width="1.51"/><path d="M940,1130L1049,1089L907,980Z" fill="#6b1ba6" stroke="#6b1ba6" stroke-width="1.51"/><path d="M1348,47L1386,-65L1215,-35Z" fill="#7122bb" stroke="#7122bb" stroke-width="1.51"/><path d="M1513,-59L1386,-65L1348,47Z" fill="#7524c0" stroke="#7524c0" stroke-width="1.51"/><path d="M907,980L1049,1089L1093,944Z" fill="#6a1aa4" stroke="#6a1aa4" stroke-width="1.51"/><path d="M940,1130L907,980L755,1130Z" fill="#691aa2" stroke="#691aa2" stroke-width="1.51"/><path d="M1518,269L1524,119L1352,204Z" fill="#6c1dad" stroke="#6c1dad" stroke-width="1.51"/><path d="M73,506L191,503L47,368Z" fill="#5d189f" stroke="#5d189f" stroke-width="1.51"/><path d="M251,382L191,503L350,414Z" fill="#591596" stroke="#591596" stroke-width="1.51"/><path d="M378,778L404,988L475,827Z" fill="#641aa3" stroke="#641aa3" stroke-width="1.51"/><path d="M1236,971L1398,913L1213,831Z" fill="#6d1ca9" stroke="#6d1ca9" stroke-width="1.51"/><path d="M1394,814L1474,834L1387,697Z" fill="#6c1ba8" stroke="#6c1ba8" stroke-width="1.51"/><path d="M1395,1100L1398,913L1236,971Z" fill="#731fb2" stroke="#731fb2" stroke-width="1.51"/><path d="M755,1130L907,980L764,964Z" fill="#64189c" stroke="#64189c" stroke-width="1.51"/><path d="M333,55L202,130L351,204Z" fill="#661eaf" stroke="#661eaf" stroke-width="1.51"/><path d="M503,-203L379,-97L513,-14Z" fill="#6a21ba" stroke="#6a21ba" stroke-width="1.51"/><path d="M503,-203L513,-14L620,-185Z" fill="#6920b8" stroke="#6920b8" stroke-width="1.51"/><path d="M1398,913L1474,834L1394,814Z" fill="#701dad" stroke="#701dad" stroke-width="1.51"/><path d="M750,-236L503,-203L620,-185Z" fill="#6a21b9" stroke="#6a21b9" stroke-width="1.51"/><path d="M614,1099L764,964L648,919Z" fill="#62169a" stroke="#62169a" stroke-width="1.51"/><path d="M950,-237L1214,-242L750,-236Z" fill="#7024c1" stroke="#7024c1" stroke-width="1.51"/><path d="M1104,-178L1214,-242L950,-237Z" fill="#7325c4" stroke="#7325c4" stroke-width="1.51"/><path d="M1362,-160L1214,-242L1215,-35Z" fill="#7525c5" stroke="#7525c5" stroke-width="1.51"/><path d="M1694,251L1624,77L1524,119Z" fill="#7321b9" stroke="#7321b9" stroke-width="1.51"/><path d="M1648,537L1622,363L1482,486Z" fill="#64179c" stroke="#64179c" stroke-width="1.51"/><path d="M1648,537L1482,486L1494,643Z" fill="#6719a0" stroke="#6719a0" stroke-width="1.51"/><path d="M508,974L614,1099L648,919Z" fill="#64189f" stroke="#64189f" stroke-width="1.51"/><path d="M191,503L202,694L372,557Z" fill="#5e189d" stroke="#5e189d" stroke-width="1.51"/><path d="M508,974L532,1139L614,1099Z" fill="#691ba6" stroke="#691ba6" stroke-width="1.51"/><path d="M240,213L112,255L251,382Z" fill="#611ca8" stroke="#611ca8" stroke-width="1.51"/><path d="M174,-86L202,130L333,55Z" fill="#6b23bc" stroke="#6b23bc" stroke-width="1.51"/><path d="M1386,-65L1362,-160L1215,-35Z" fill="#7424c2" stroke="#7424c2" stroke-width="1.51"/><path d="M1513,-59L1362,-160L1386,-65Z" fill="#7826c7" stroke="#7826c7" stroke-width="1.51"/><path d="M221,817L404,988L378,778Z" fill="#671ca9" stroke="#671ca9" stroke-width="1.51"/><path d="M940,1130L1226,1086L1049,1089Z" fill="#701dac" stroke="#701dac" stroke-width="1.51"/><path d="M1049,1089L1226,1086L1093,944Z" fill="#6e1cab" stroke="#6e1cab" stroke-width="1.51"/><path d="M1682,635L1648,537L1494,643Z" fill="#6b1ba6" stroke="#6b1ba6" stroke-width="1.51"/><path d="M202,694L221,817L378,778Z" fill="#651ba7" stroke="#651ba7" stroke-width="1.51"/><path d="M1624,77L1513,-59L1524,119Z" fill="#7624c0" stroke="#7624c0" stroke-width="1.51"/><path d="M1524,119L1513,-59L1348,47Z" fill="#7322bc" stroke="#7322bc" stroke-width="1.51"/><path d="M202,130L112,255L240,213Z" fill="#661eb0" stroke="#661eb0" stroke-width="1.51"/><path d="M191,503L84,628L202,694Z" fill="#621ba4" stroke="#621ba4" stroke-width="1.51"/><path d="M202,694L53,820L221,817Z" fill="#6a1eae" stroke="#6a1eae" stroke-width="1.51"/><path d="M183,1069L403,1054L404,988Z" fill="#6f1fb3" stroke="#6f1fb3" stroke-width="1.51"/><path d="M404,988L403,1054L508,974Z" fill="#6a1caa" stroke="#6a1caa" stroke-width="1.51"/><path d="M614,1099L532,1139L755,1130Z" fill="#691aa4" stroke="#691aa4" stroke-width="1.51"/><path d="M379,-97L174,-86L333,55Z" fill="#6d23c0" stroke="#6d23c0" stroke-width="1.51"/><path d="M202,130L90,61L112,255Z" fill="#6921b9" stroke="#6921b9" stroke-width="1.51"/><path d="M503,-203L381,-212L379,-97Z" fill="#6f25c3" stroke="#6f25c3" stroke-width="1.51"/><path d="M750,-236L381,-212L503,-203Z" fill="#6d23bf" stroke="#6d23bf" stroke-width="1.51"/><path d="M403,1054L532,1139L508,974Z" fill="#6b1caa" stroke="#6b1caa" stroke-width="1.51"/><path d="M755,1130L532,1139L940,1130Z" fill="#6719a0" stroke="#6719a0" stroke-width="1.51"/><path d="M1694,251L1524,119L1518,269Z" fill="#6e1eb1" stroke="#6e1eb1" stroke-width="1.51"/><path d="M1694,251L1518,269L1622,363Z" fill="#6b1cab" stroke="#6b1cab" stroke-width="1.51"/><path d="M1697,773L1682,635L1494,643Z" fill="#6f1dab" stroke="#6f1dab" stroke-width="1.51"/><path d="M1398,913L1532,913L1474,834Z" fill="#721fb1" stroke="#721fb1" stroke-width="1.51"/><path d="M1517,1086L1532,913L1398,913Z" fill="#7720b6" stroke="#7720b6" stroke-width="1.51"/><path d="M47,368L191,503L251,382Z" fill="#5c189e" stroke="#5c189e" stroke-width="1.51"/><path d="M1648,537L1694,251L1622,363Z" fill="#681aa4" stroke="#681aa4" stroke-width="1.51"/><path d="M1648,537L1682,635L1694,251Z" fill="#6719a1" stroke="#6719a1" stroke-width="1.51"/><path d="M1697,773L1494,643L1474,834Z" fill="#6f1dac" stroke="#6f1dac" stroke-width="1.51"/><path d="M73,506L84,628L191,503Z" fill="#611aa3" stroke="#611aa3" stroke-width="1.51"/><path d="M112,255L47,368L251,382Z" fill="#611ba7" stroke="#611ba7" stroke-width="1.51"/><path d="M-38,648L53,820L84,628Z" fill="#6a1fb2" stroke="#6a1fb2" stroke-width="1.51"/><path d="M940,1130L1395,1100L1226,1086Z" fill="#731fb2" stroke="#731fb2" stroke-width="1.51"/><path d="M1226,1086L1395,1100L1236,971Z" fill="#741fb3" stroke="#741fb3" stroke-width="1.51"/><path d="M403,1054L183,1069L532,1139Z" fill="#6f1fb4" stroke="#6f1fb4" stroke-width="1.51"/><path d="M221,817L186,922L404,988Z" fill="#6b1eaf" stroke="#6b1eaf" stroke-width="1.51"/><path d="M53,820L186,922L221,817Z" fill="#6d20b4" stroke="#6d20b4" stroke-width="1.51"/><path d="M200,-200L174,-86L379,-97Z" fill="#7227cb" stroke="#7227cb" stroke-width="1.51"/><path d="M112,255L-81,218L47,368Z" fill="#671fb4" stroke="#671fb4" stroke-width="1.51"/><path d="M174,-86L90,61L202,130Z" fill="#6e24c2" stroke="#6e24c2" stroke-width="1.51"/><path d="M1513,-59L1519,-235L1362,-160Z" fill="#7c28ce" stroke="#7c28ce" stroke-width="1.51"/><path d="M1362,-160L1519,-235L1214,-242Z" fill="#7c29d0" stroke="#7c29d0" stroke-width="1.51"/><path d="M1624,77L1658,-21L1513,-59Z" fill="#7926c6" stroke="#7926c6" stroke-width="1.51"/><path d="M1694,251L1658,-21L1624,77Z" fill="#7623bf" stroke="#7623bf" stroke-width="1.51"/><path d="M1682,635L1697,773L1694,251Z" fill="#6b1ba6" stroke="#6b1ba6" stroke-width="1.51"/><path d="M1532,913L1697,773L1474,834Z" fill="#741fb2" stroke="#741fb2" stroke-width="1.51"/><path d="M1618,936L1697,773L1532,913Z" fill="#7720b6" stroke="#7720b6" stroke-width="1.51"/><path d="M1517,1086L1618,936L1532,913Z" fill="#7a22ba" stroke="#7a22ba" stroke-width="1.51"/><path d="M1644,-169L1519,-235L1513,-59Z" fill="#7f2bd3" stroke="#7f2bd3" stroke-width="1.51"/><path d="M174,-86L54,-11L90,61Z" fill="#7226ca" stroke="#7226ca" stroke-width="1.51"/><path d="M381,-212L200,-200L379,-97Z" fill="#7226cb" stroke="#7226cb" stroke-width="1.51"/><path d="M1395,1100L1517,1086L1398,913Z" fill="#7821b8" stroke="#7821b8" stroke-width="1.51"/><path d="M84,628L53,820L202,694Z" fill="#681eae" stroke="#681eae" stroke-width="1.51"/><path d="M-38,648L84,628L73,506Z" fill="#651dac" stroke="#651dac" stroke-width="1.51"/><path d="M105,-210L54,-11L174,-86Z" fill="#7629d2" stroke="#7629d2" stroke-width="1.51"/><path d="M90,61L-41,115L112,255Z" fill="#6d23bf" stroke="#6d23bf" stroke-width="1.51"/><path d="M1658,-21L1644,-169L1513,-59Z" fill="#7d29ce" stroke="#7d29ce" stroke-width="1.51"/><path d="M1694,251L1644,-169L1658,-21Z" fill="#7a26c7" stroke="#7a26c7" stroke-width="1.51"/><path d="M-69,490L73,506L47,368Z" fill="#601aa5" stroke="#601aa5" stroke-width="1.51"/><path d="M-69,490L-38,648L73,506Z" fill="#651dac" stroke="#651dac" stroke-width="1.51"/><path d="M-88,391L-69,490L47,368Z" fill="#631cab" stroke="#631cab" stroke-width="1.51"/><path d="M186,922L183,1069L404,988Z" fill="#7020b5" stroke="#7020b5" stroke-width="1.51"/><path d="M93,993L183,1069L186,922Z" fill="#7323bc" stroke="#7323bc" stroke-width="1.51"/><path d="M93,993L186,922L53,820Z" fill="#7122ba" stroke="#7122ba" stroke-width="1.51"/><path d="M54,-11L-41,115L90,61Z" fill="#7126c8" stroke="#7126c8" stroke-width="1.51"/><path d="M-81,218L-88,391L47,368Z" fill="#671fb4" stroke="#671fb4" stroke-width="1.51"/><path d="M-76,955L93,993L53,820Z" fill="#7524c1" stroke="#7524c1" stroke-width="1.51"/><path d="M-41,115L-81,218L112,255Z" fill="#6c22be" stroke="#6c22be" stroke-width="1.51"/><path d="M54,-11L-113,-28L-41,115Z" fill="#7528d0" stroke="#7528d0" stroke-width="1.51"/><path d="M200,-200L105,-210L174,-86Z" fill="#782ad5" stroke="#782ad5" stroke-width="1.51"/><path d="M381,-212L105,-210L200,-200Z" fill="#772ad4" stroke="#772ad4" stroke-width="1.51"/><path d="M750,-236L105,-210L381,-212Z" fill="#7226c9" stroke="#7226c9" stroke-width="1.51"/><path d="M-38,648L-80,774L53,820Z" fill="#6e22b9" stroke="#6e22b9" stroke-width="1.51"/><path d="M-222,634L-80,774L-38,648Z" fill="#6f22bb" stroke="#6f22bb" stroke-width="1.51"/><path d="M-173,563L-38,648L-69,490Z" fill="#691fb3" stroke="#691fb3" stroke-width="1.51"/><path d="M1395,1100L1646,1134L1517,1086Z" fill="#7e24c0" stroke="#7e24c0" stroke-width="1.51"/><path d="M1517,1086L1646,1134L1618,936Z" fill="#7e24c0" stroke="#7e24c0" stroke-width="1.51"/><path d="M1618,936L1646,1134L1697,773Z" fill="#7b23bc" stroke="#7b23bc" stroke-width="1.51"/><path d="M940,1130L1646,1134L1395,1100Z" fill="#7922b9" stroke="#7922b9" stroke-width="1.51"/><path d="M532,1139L1646,1134L940,1130Z" fill="#701dad" stroke="#701dad" stroke-width="1.51"/><path d="M93,993L105,1113L183,1069Z" fill="#7724c2" stroke="#7724c2" stroke-width="1.51"/><path d="M183,1069L105,1113L532,1139Z" fill="#7422bb" stroke="#7422bb" stroke-width="1.51"/><path d="M-87,1137L105,1113L93,993Z" fill="#7b27ca" stroke="#7b27ca" stroke-width="1.51"/><path d="M-191,422L-69,490L-88,391Z" fill="#651eaf" stroke="#651eaf" stroke-width="1.51"/><path d="M-191,422L-173,563L-69,490Z" fill="#671eb2" stroke="#671eb2" stroke-width="1.51"/><path d="M-181,217L-81,218L-181,78Z" fill="#7226c9" stroke="#7226c9" stroke-width="1.51"/><path d="M-181,217L-88,391L-81,218Z" fill="#6c22be" stroke="#6c22be" stroke-width="1.51"/><path d="M-181,217L-191,422L-88,391Z" fill="#6b21ba" stroke="#6b21ba" stroke-width="1.51"/><path d="M-181,78L-81,218L-41,115Z" fill="#7226ca" stroke="#7226ca" stroke-width="1.51"/><path d="M-113,-171L-113,-28L54,-11Z" fill="#7a2cda" stroke="#7a2cda" stroke-width="1.51"/><path d="M-198,829L-76,955L-80,774Z" fill="#7626c7" stroke="#7626c7" stroke-width="1.51"/><path d="M-80,774L-76,955L53,820Z" fill="#7324c0" stroke="#7324c0" stroke-width="1.51"/><path d="M-113,-28L-181,78L-41,115Z" fill="#7629d2" stroke="#7629d2" stroke-width="1.51"/><path d="M-223,-26L-222,634L-191,422Z" fill="#6d22be" stroke="#6d22be" stroke-width="1.51"/><path d="M-173,563L-222,634L-38,648Z" fill="#6c21b9" stroke="#6c21b9" stroke-width="1.51"/><path d="M-191,422L-222,634L-173,563Z" fill="#6b21b8" stroke="#6b21b8" stroke-width="1.51"/><path d="M-223,-26L-191,422L-181,217Z" fill="#7227ca" stroke="#7227ca" stroke-width="1.51"/><path d="M105,-210L-113,-171L54,-11Z" fill="#7b2cdb" stroke="#7b2cdb" stroke-width="1.51"/><path d="M-113,-28L-223,-26L-181,78Z" fill="#7a2cdb" stroke="#7a2cdb" stroke-width="1.51"/><path d="M-222,634L-198,829L-80,774Z" fill="#7324c3" stroke="#7324c3" stroke-width="1.51"/><path d="M-181,78L-223,-26L-181,217Z" fill="#782ad5" stroke="#782ad5" stroke-width="1.51"/><path d="M-113,-171L-223,-26L-113,-28Z" fill="#7d2ee1" stroke="#7d2ee1" stroke-width="1.51"/><path d="M-76,955L-87,1137L93,993Z" fill="#7b28cb" stroke="#7b28cb" stroke-width="1.51"/><path d="M-198,829L-185,978L-76,955Z" fill="#7a28cd" stroke="#7a28cd" stroke-width="1.51"/><path d="M-228,1061L-185,978L-198,829Z" fill="#7e2ad3" stroke="#7e2ad3" stroke-width="1.51"/><path d="M-185,978L-87,1137L-76,955Z" fill="#7e29d1" stroke="#7e29d1" stroke-width="1.51"/><path d="M105,1113L-87,1137L532,1139Z" fill="#7824c3" stroke="#7824c3" stroke-width="1.51"/><path d="M-113,-171L-228,-218L-223,-26Z" fill="#8231eb" stroke="#8231eb" stroke-width="1.51"/><path d="M-223,-26L-228,-218L-222,634Z" fill="#7729d3" stroke="#7729d3" stroke-width="1.51"/><path d="M105,-210L-228,-218L-113,-171Z" fill="#8130e9" stroke="#8130e9" stroke-width="1.51"/><path d="M750,-236L-228,-218L105,-210Z" fill="#782bd7" stroke="#782bd7" stroke-width="1.51"/><path d="M-185,978L-228,1061L-87,1137Z" fill="#812bd7" stroke="#812bd7" stroke-width="1.51"/><path d="M-222,634L-228,1061L-198,829Z" fill="#7928cc" stroke="#7928cc" stroke-width="1.51"/><path d="M-228,-218L-228,1061L-222,634Z" fill="#6a20b7" stroke="#6a20b7" stroke-width="1.51"/></svg>