<svg xmlns="http://www.w3.org/2000/svg" width="1440" height="900"><path d="M792,413L822,482L971,367Z" fill="#2450cf" stroke="#2450cf" stroke-width="1.51"/><path d="M822,482L937,497L971,367Z" fill="#1f4dca" stroke="#1f4dca" stroke-width="1.51"/><path d="M971,367L799,230L792,413Z" fill="#3456d2" stroke="#3456d2" stroke-width="1.51"/><path d="M971,367L958,213L799,230Z" fill="#3e59cd" stroke="#3e59cd" stroke-width="1.51"/><path d="M822,482L807,625L937,497Z" fill="#224bc3" stroke="#224bc3" stroke-width="1.51"/><path d="M605,539L807,625L822,482Z" fill="#1e4ecd" stroke="#1e4ecd" stroke-width="1.51"/><path d="M1083,552L1123,377L971,367Z" fill="#294aba" stroke="#294aba" stroke-width="1.51"/><path d="M971,367L1098,233L958,213Z" fill="#3f56c3" stroke="#3f56c3" stroke-width="1.51"/><path d="M1083,552L971,367L937,497Z" fill="#244abd" stroke="#244abd" stroke-width="1.51"/><path d="M908,680L1083,552L937,497Z" fill="#2846b0" stroke="#2846b0" stroke-width="1.51"/><path d="M792,413L644,419L822,482Z" fill="#1952da" stroke="#1952da" stroke-width="1.51"/><path d="M650,223L644,419L792,413Z" fill="#315ae1" stroke="#315ae1" stroke-width="1.51"/><path d="M807,625L908,680L937,497Z" fill="#2647b6" stroke="#2647b6" stroke-width="1.51"/><path d="M1123,377L1098,233L971,367Z" fill="#3951bc" stroke="#3951bc" stroke-width="1.51"/><path d="M799,230L650,223L792,413Z" fill="#3a5cde" stroke="#3a5cde" stroke-width="1.51"/><path d="M670,125L650,223L799,230Z" fill="#4964e3" stroke="#4964e3" stroke-width="1.51"/><path d="M644,419L605,539L822,482Z" fill="#1d53da" stroke="#1d53da" stroke-width="1.51"/><path d="M807,625L831,845L908,680Z" fill="#2944aa" stroke="#2944aa" stroke-width="1.51"/><path d="M524,494L605,539L644,419Z" fill="#2e57db" stroke="#2e57db" stroke-width="1.51"/><path d="M958,213L834,91L799,230Z" fill="#4a60d4" stroke="#4a60d4" stroke-width="1.51"/><path d="M960,71L834,91L958,213Z" fill="#5061cf" stroke="#5061cf" stroke-width="1.51"/><path d="M1229,506L1229,409L1123,377Z" fill="#2c46ad" stroke="#2c46ad" stroke-width="1.51"/><path d="M908,680L1052,702L1083,552Z" fill="#2b42a2" stroke="#2b42a2" stroke-width="1.51"/><path d="M1123,377L1190,218L1098,233Z" fill="#4051b5" stroke="#4051b5" stroke-width="1.51"/><path d="M1229,506L1123,377L1083,552Z" fill="#2945ad" stroke="#2945ad" stroke-width="1.51"/><path d="M1102,87L960,71L958,213Z" fill="#505fc6" stroke="#505fc6" stroke-width="1.51"/><path d="M1194,669L1229,506L1083,552Z" fill="#2b409d" stroke="#2b409d" stroke-width="1.51"/><path d="M605,539L640,667L807,625Z" fill="#274ec7" stroke="#274ec7" stroke-width="1.51"/><path d="M908,680L966,817L1052,702Z" fill="#2b409a" stroke="#2b409a" stroke-width="1.51"/><path d="M1098,233L1102,87L958,213Z" fill="#4a5ac0" stroke="#4a5ac0" stroke-width="1.51"/><path d="M1229,409L1190,218L1123,377Z" fill="#394cb0" stroke="#394cb0" stroke-width="1.51"/><path d="M834,91L670,125L799,230Z" fill="#4e65df" stroke="#4e65df" stroke-width="1.51"/><path d="M485,256L525,386L650,223Z" fill="#4b64e4" stroke="#4b64e4" stroke-width="1.51"/><path d="M650,223L525,386L644,419Z" fill="#3d5ee2" stroke="#3d5ee2" stroke-width="1.51"/><path d="M605,539L506,633L640,667Z" fill="#3352c8" stroke="#3352c8" stroke-width="1.51"/><path d="M525,386L524,494L644,419Z" fill="#345be1" stroke="#345be1" stroke-width="1.51"/><path d="M1190,218L1102,87L1098,233Z" fill="#4a58b8" stroke="#4a58b8" stroke-width="1.51"/><path d="M1052,702L1194,669L1083,552Z" fill="#2b3f99" stroke="#2b3f99" stroke-width="1.51"/><path d="M831,845L966,817L908,680Z" fill="#2c409b" stroke="#2c409b" stroke-width="1.51"/><path d="M1052,702L1076,784L1194,669Z" fill="#2c3c8f" stroke="#2c3c8f" stroke-width="1.51"/><path d="M966,817L1076,784L1052,702Z" fill="#2c3d90" stroke="#2c3d90" stroke-width="1.51"/><path d="M350,414L372,557L524,494Z" fill="#435fdd" stroke="#435fdd" stroke-width="1.51"/><path d="M462,127L485,256L650,223Z" fill="#576be6" stroke="#576be6" stroke-width="1.51"/><path d="M669,834L831,845L807,625Z" fill="#2944aa" stroke="#2944aa" stroke-width="1.51"/><path d="M1190,218L1207,115L1102,87Z" fill="#4e59b5" stroke="#4e59b5" stroke-width="1.51"/><path d="M1352,204L1207,115L1190,218Z" fill="#4954ac" stroke="#4954ac" stroke-width="1.51"/><path d="M640,667L669,834L807,625Z" fill="#2849b8" stroke="#2849b8" stroke-width="1.51"/><path d="M524,494L506,633L605,539Z" fill="#3656d1" stroke="#3656d1" stroke-width="1.51"/><path d="M372,557L506,633L524,494Z" fill="#3e5ad1" stroke="#3e5ad1" stroke-width="1.51"/><path d="M1229,409L1341,358L1190,218Z" fill="#3a4aa8" stroke="#3a4aa8" stroke-width="1.51"/><path d="M1229,506L1341,358L1229,409Z" fill="#2e44a5" stroke="#2e44a5" stroke-width="1.51"/><path d="M1398,562L1341,358L1229,506Z" fill="#2b409b" stroke="#2b409b" stroke-width="1.51"/><path d="M834,91L767,-30L670,125Z" fill="#586ae2" stroke="#586ae2" stroke-width="1.51"/><path d="M670,125L462,127L650,223Z" fill="#576be6" stroke="#576be6" stroke-width="1.51"/><path d="M930,-97L767,-30L834,91Z" fill="#5f6dda" stroke="#5f6dda" stroke-width="1.51"/><path d="M930,-97L834,91L960,71Z" fill="#5b68d2" stroke="#5b68d2" stroke-width="1.51"/><path d="M930,-97L960,71L1073,-84Z" fill="#606acb" stroke="#606acb" stroke-width="1.51"/><path d="M475,827L669,834L640,667Z" fill="#354bb0" stroke="#354bb0" stroke-width="1.51"/><path d="M1341,358L1352,204L1190,218Z" fill="#414ea6" stroke="#414ea6" stroke-width="1.51"/><path d="M1073,-84L960,71L1102,87Z" fill="#5964c3" stroke="#5964c3" stroke-width="1.51"/><path d="M1073,-84L1102,87L1215,-35Z" fill="#5c63bb" stroke="#5c63bb" stroke-width="1.51"/><path d="M513,-14L462,127L670,125Z" fill="#6372e8" stroke="#6372e8" stroke-width="1.51"/><path d="M350,414L524,494L525,386Z" fill="#405fe2" stroke="#405fe2" stroke-width="1.51"/><path d="M620,-185L617,-24L767,-30Z" fill="#6b78e9" stroke="#6b78e9" stroke-width="1.51"/><path d="M767,-30L617,-24L670,125Z" fill="#5f70e7" stroke="#5f70e7" stroke-width="1.51"/><path d="M1215,-35L1102,87L1207,115Z" fill="#565eb6" stroke="#565eb6" stroke-width="1.51"/><path d="M1194,669L1398,562L1229,506Z" fill="#2c3d92" stroke="#2c3d92" stroke-width="1.51"/><path d="M1076,784L1213,831L1194,669Z" fill="#2d3983" stroke="#2d3983" stroke-width="1.51"/><path d="M1093,944L1213,831L1076,784Z" fill="#2d367b" stroke="#2d367b" stroke-width="1.51"/><path d="M1093,944L1076,784L966,817Z" fill="#2d3983" stroke="#2d3983" stroke-width="1.51"/><path d="M1387,697L1398,562L1194,669Z" fill="#2d3984" stroke="#2d3984" stroke-width="1.51"/><path d="M1341,358L1518,269L1352,204Z" fill="#3f499a" stroke="#3f499a" stroke-width="1.51"/><path d="M350,414L525,386L485,256Z" fill="#4c65e4" stroke="#4c65e4" stroke-width="1.51"/><path d="M475,827L648,919L669,834Z" fill="#3647a4" stroke="#3647a4" stroke-width="1.51"/><path d="M351,204L350,414L485,256Z" fill="#586ce6" stroke="#586ce6" stroke-width="1.51"/><path d="M1348,47L1215,-35L1207,115Z" fill="#555cad" stroke="#555cad" stroke-width="1.51"/><path d="M831,845L907,980L966,817Z" fill="#2c3c8d" stroke="#2c3c8d" stroke-width="1.51"/><path d="M669,834L764,964L831,845Z" fill="#2b409c" stroke="#2b409c" stroke-width="1.51"/><path d="M475,827L640,667L506,633Z" fill="#3950ba" stroke="#3950ba" stroke-width="1.51"/><path d="M648,919L764,964L669,834Z" fill="#2d419c" stroke="#2d419c" stroke-width="1.51"/><path d="M372,557L401,701L506,633Z" fill="#4359c7" stroke="#4359c7" stroke-width="1.51"/><path d="M462,127L351,204L485,256Z" fill="#6070e7" stroke="#6070e7" stroke-width="1.51"/><path d="M617,-24L513,-14L670,125Z" fill="#6574e8" stroke="#6574e8" stroke-width="1.51"/><path d="M620,-185L513,-14L617,-24Z" fill="#707bea" stroke="#707bea" stroke-width="1.51"/><path d="M764,964L907,980L831,845Z" fill="#2d3c8d" stroke="#2d3c8d" stroke-width="1.51"/><path d="M907,980L1093,944L966,817Z" fill="#2d3880" stroke="#2d3880" stroke-width="1.51"/><path d="M1213,831L1387,697L1194,669Z" fill="#2c377d" stroke="#2c377d" stroke-width="1.51"/><path d="M1394,814L1387,697L1213,831Z" fill="#2c3471" stroke="#2c3471" stroke-width="1.51"/><path d="M333,55L351,204L462,127Z" fill="#6a77e9" stroke="#6a77e9" stroke-width="1.51"/><path d="M401,701L475,827L506,633Z" fill="#4153ba" stroke="#4153ba" stroke-width="1.51"/><path d="M1524,119L1348,47L1352,204Z" fill="#4d539d" stroke="#4d539d" stroke-width="1.51"/><path d="M1352,204L1348,47L1207,115Z" fill="#4e56a7" stroke="#4e56a7" stroke-width="1.51"/><path d="M1398,562L1482,486L1341,358Z" fill="#2c3e94" stroke="#2c3e94" stroke-width="1.51"/><path d="M1494,643L1482,486L1398,562Z" fill="#2d3982" stroke="#2d3982" stroke-width="1.51"/><path d="M1482,486L1508,367L1341,358Z" fill="#314194" stroke="#314194" stroke-width="1.51"/><path d="M401,701L378,778L475,827Z" fill="#4453b3" stroke="#4453b3" stroke-width="1.51"/><path d="M475,827L508,974L648,919Z" fill="#3a489e" stroke="#3a489e" stroke-width="1.51"/><path d="M202,694L378,778L401,701Z" fill="#4b59bb" stroke="#4b59bb" stroke-width="1.51"/><path d="M202,694L401,701L372,557Z" fill="#4b5cc5" stroke="#4b5cc5" stroke-width="1.51"/><path d="M930,-97L750,-236L767,-30Z" fill="#6a75df" stroke="#6a75df" stroke-width="1.51"/><path d="M1073,-84L950,-237L930,-97Z" fill="#6970cd" stroke="#6970cd" stroke-width="1.51"/><path d="M1215,-35L1104,-178L1073,-84Z" fill="#6469bd" stroke="#6469bd" stroke-width="1.51"/><path d="M1214,-242L1104,-178L1215,-35Z" fill="#676bb9" stroke="#676bb9" stroke-width="1.51"/><path d="M351,204L251,382L350,414Z" fill="#596de6" stroke="#596de6" stroke-width="1.51"/><path d="M350,414L191,503L372,557Z" fill="#4d64de" stroke="#4d64de" stroke-width="1.51"/><path d="M1387,697L1494,643L1398,562Z" fill="#2d377b" stroke="#2d377b" stroke-width="1.51"/><path d="M1398,913L1394,814L1213,831Z" fill="#2c3167" stroke="#2c3167" stroke-width="1.51"/><path d="M1508,367L1518,269L1341,358Z" fill="#394494" stroke="#394494" stroke-width="1.51"/><path d="M1482,486L1622,363L1508,367Z" fill="#323e8b" stroke="#323e8b" stroke-width="1.51"/><path d="M1508,367L1622,363L1518,269Z" fill="#38428b" stroke="#38428b" stroke-width="1.51"/><path d="M1474,834L1494,643L1387,697Z" fill="#2c326d" stroke="#2c326d" stroke-width="1.51"/><path d="M1104,-178L950,-237L1073,-84Z" fill="#6a70c7" stroke="#6a70c7" stroke-width="1.51"/><path d="M750,-236L620,-185L767,-30Z" fill="#6e7aea" stroke="#6e7aea" stroke-width="1.51"/><path d="M513,-14L333,55L462,127Z" fill="#6e79ea" stroke="#6e79ea" stroke-width="1.51"/><path d="M1226,1086L1236,971L1093,944Z" fill="#2b2f62" stroke="#2b2f62" stroke-width="1.51"/><path d="M1093,944L1236,971L1213,831Z" fill="#2c336d" stroke="#2c336d" stroke-width="1.51"/><path d="M379,-97L333,55L513,-14Z" fill="#767fec" stroke="#767fec" stroke-width="1.51"/><path d="M351,204L240,213L251,382Z" fill="#6372e8" stroke="#6372e8" stroke-width="1.51"/><path d="M950,-237L750,-236L930,-97Z" fill="#6f78da" stroke="#6f78da" stroke-width="1.51"/><path d="M202,130L240,213L351,204Z" fill="#6d79ea" stroke="#6d79ea" stroke-width="1.51"/><path d="M404,988L508,974L475,827Z" fill="#404a9c" stroke="#404a9c" stroke-width="1.51"/><path d="M614,1099L755,1130L764,964Z" fill="#2e3b85" stroke="#2e3b85" stroke-width="1.51"/><path d="M940,1130L1049,1089L907,980Z" fill="#2c326d" stroke="#2c326d" stroke-width="1.51"/><path d="M1348,47L1386,-65L1215,-35Z" fill="#5a5ea8" stroke="#5a5ea8" stroke-width="1.51"/><path d="M1513,-59L1386,-65L1348,47Z" fill="#595b9e" stroke="#595b9e" stroke-width="1.51"/><path d="M907,980L1049,1089L1093,944Z" fill="#2c3471" stroke="#2c3471" stroke-width="1.51"/><path d="M940,1130L907,980L755,1130Z" fill="#2d3575" stroke="#2d3575" stroke-width="1.51"/><path d="M1518,269L1524,119L1352,204Z" fill="#454c95" stroke="#454c95" stroke-width="1.51"/><path d="M73,506L191,503L47,368Z" fill="#5d6fe5" stroke="#5d6fe5" stroke-width="1.51"/><path d="M251,382L191,503L350,414Z" fill="#5369e5" stroke="#5369e5" stroke-width="1.51"/><path d="M378,778L404,988L475,827Z" fill="#434ea5" stroke="#434ea5" stroke-width="1.51"/><path d="M1236,971L1398,913L1213,831Z" fill="#2b3065" stroke="#2b3065" stroke-width="1.51"/><path d="M1394,814L1474,834L1387,697Z" fill="#2c3169" stroke="#2c3169" stroke-width="1.51"/><path d="M1395,1100L1398,913L1236,971Z" fill="#292b54" stroke="#292b54" stroke-width="1.51"/><path d="M755,1130L907,980L764,964Z" fill="#2d3982" stroke="#2d3982" stroke-width="1.51"/><path d="M333,55L202,130L351,204Z" fill="#707beb" stroke="#707beb" stroke-width="1.51"/><path d="M503,-203L379,-97L513,-14Z" fill="#7b83ec" stroke="#7b83ec" stroke-width="1.51"/><path d="M503,-203L513,-14L620,-185Z" fill="#7881ec" stroke="#7881ec" stroke-width="1.51"/><path d="M1398,913L1474,834L1394,814Z" fill="#2b2e5e" stroke="#2b2e5e" stroke-width="1.51"/><path d="M750,-236L503,-203L620,-185Z" fill="#7a82ec" stroke="#7a82ec" stroke-width="1.51"/><path d="M614,1099L764,964L648,919Z" fill="#303f8f" stroke="#303f8f" stroke-width="1.51"/><path d="M950,-237L1214,-242L750,-236Z" fill="#7277d0" stroke="#7277d0" stroke-width="1.51"/><path d="M1104,-178L1214,-242L950,-237Z" fill="#6e72c3" stroke="#6e72c3" stroke-width="1.51"/><path d="M1362,-160L1214,-242L1215,-35Z" fill="#6568b0" stroke="#6568b0" stroke-width="1.51"/><path d="M1694,251L1624,77L1524,119Z" fill="#474b88" stroke="#474b88" stroke-width="1.51"/><path d="M1648,537L1622,363L1482,486Z" fill="#2d3983" stroke="#2d3983" stroke-width="1.51"/><path d="M1648,537L1482,486L1494,643Z" fill="#2c377b" stroke="#2c377b" stroke-width="1.51"/><path d="M508,974L614,1099L648,919Z" fill="#374291" stroke="#374291" stroke-width="1.51"/><path d="M191,503L202,694L372,557Z" fill="#5162d0" stroke="#5162d0" stroke-width="1.51"/><path d="M508,974L532,1139L614,1099Z" fill="#384187" stroke="#384187" stroke-width="1.51"/><path d="M240,213L112,255L251,382Z" fill="#6875e9" stroke="#6875e9" stroke-width="1.51"/><path d="M174,-86L202,130L333,55Z" fill="#7d84ed" stroke="#7d84ed" stroke-width="1.51"/><path d="M1386,-65L1362,-160L1215,-35Z" fill="#5f62a9" stroke="#5f62a9" stroke-width="1.51"/><path d="M1513,-59L1362,-160L1386,-65Z" fill="#5e609f" stroke="#5e609f" stroke-width="1.51"/><path d="M221,817L404,988L378,778Z" fill="#4953a7" stroke="#4953a7" stroke-width="1.51"/><path d="M940,1130L1226,1086L1049,1089Z" fill="#2a2f5f" stroke="#2a2f5f" stroke-width="1.51"/><path d="M1049,1089L1226,1086L1093,944Z" fill="#2b2f62" stroke="#2b2f62" stroke-width="1.51"/><path d="M1682,635L1648,537L1494,643Z" fill="#2c336e" stroke="#2c336e" stroke-width="1.51"/><path d="M202,694L221,817L378,778Z" fill="#4f5ab6" stroke="#4f5ab6" stroke-width="1.51"/><path d="M1624,77L1513,-59L1524,119Z" fill="#50538f" stroke="#50538f" stroke-width="1.51"/><path d="M1524,119L1513,-59L1348,47Z" fill="#535798" stroke="#535798" stroke-width="1.51"/><path d="M202,130L112,255L240,213Z" fill="#717ceb" stroke="#717ceb" stroke-width="1.51"/><path d="M191,503L84,628L202,694Z" fill="#5866ce" stroke="#5866ce" stroke-width="1.51"/><path d="M202,694L53,820L221,817Z" fill="#565eb5" stroke="#565eb5" stroke-width="1.51"/><path d="M183,1069L403,1054L404,988Z" fill="#474c8e" stroke="#474c8e" stroke-width="1.51"/><path d="M404,988L403,1054L508,974Z" fill="#404891" stroke="#404891" stroke-width="1.51"/><path d="M614,1099L532,1139L755,1130Z" fill="#333b7e" stroke="#333b7e" stroke-width="1.51"/><path d="M379,-97L174,-86L333,55Z" fill="#8087ee" stroke="#8087ee" stroke-width="1.51"/><path d="M202,130L90,61L112,255Z" fill="#7982ec" stroke="#7982ec" stroke-width="1.51"/><path d="M503,-203L381,-212L379,-97Z" fill="#8389ee" stroke="#8389ee" stroke-width="1.51"/><path d="M750,-236L381,-212L503,-203Z" fill="#7f86ed" stroke="#7f86ed" stroke-width="1.51"/><path d="M403,1054L532,1139L508,974Z" fill="#3d4489" stroke="#3d4489" stroke-width="1.51"/><path d="M755,1130L532,1139L940,1130Z" fill="#2d377a" stroke="#2d377a" stroke-width="1.51"/><path d="M1694,251L1524,119L1518,269Z" fill="#43488a" stroke="#43488a" stroke-width="1.51"/><path d="M1694,251L1518,269L1622,363Z" fill="#3b4285" stroke="#3b4285" stroke-width="1.51"/><path d="M1697,773L1682,635L1494,643Z" fill="#2b2f62" stroke="#2b2f62" stroke-width="1.51"/><path d="M1398,913L1532,913L1474,834Z" fill="#292c56" stroke="#292c56" stroke-width="1.51"/><path d="M1517,1086L1532,913L1398,913Z" fill="#28294a" stroke="#28294a" stroke-width="1.51"/><path d="M47,368L191,503L251,382Z" fill="#5d6ee6" stroke="#5d6ee6" stroke-width="1.51"/><path d="M1648,537L1694,251L1622,363Z" fill="#333c80" stroke="#333c80" stroke-width="1.51"/><path d="M1648,537L1682,635L1694,251Z" fill="#2c3679" stroke="#2c3679" stroke-width="1.51"/><path d="M1697,773L1494,643L1474,834Z" fill="#2b2f60" stroke="#2b2f60" stroke-width="1.51"/><path d="M73,506L84,628L191,503Z" fill="#5c6ad8" stroke="#5c6ad8" stroke-width="1.51"/><path d="M112,255L47,368L251,382Z" fill="#6775e9" stroke="#6775e9" stroke-width="1.51"/><path d="M-38,648L53,820L84,628Z" fill="#5f67c3" stroke="#5f67c3" stroke-width="1.51"/><path d="M940,1130L1395,1100L1226,1086Z" fill="#292c54" stroke="#292c54" stroke-width="1.51"/><path d="M1226,1086L1395,1100L1236,971Z" fill="#292a51" stroke="#292a51" stroke-width="1.51"/><path d="M403,1054L183,1069L532,1139Z" fill="#434887" stroke="#434887" stroke-width="1.51"/><path d="M221,817L186,922L404,988Z" fill="#4d53a1" stroke="#4d53a1" stroke-width="1.51"/><path d="M53,820L186,922L221,817Z" fill="#555bab" stroke="#555bab" stroke-width="1.51"/><path d="M200,-200L174,-86L379,-97Z" fill="#898ff0" stroke="#898ff0" stroke-width="1.51"/><path d="M112,255L-81,218L47,368Z" fill="#747eeb" stroke="#747eeb" stroke-width="1.51"/><path d="M174,-86L90,61L202,130Z" fill="#8288ee" stroke="#8288ee" stroke-width="1.51"/><path d="M1513,-59L1519,-235L1362,-160Z" fill="#61639b" stroke="#61639b" stroke-width="1.51"/><path d="M1362,-160L1519,-235L1214,-242Z" fill="#676aa7" stroke="#676aa7" stroke-width="1.51"/><path d="M1624,77L1658,-21L1513,-59Z" fill="#53558b" stroke="#53558b" stroke-width="1.51"/><path d="M1694,251L1658,-21L1624,77Z" fill="#4a4c84" stroke="#4a4c84" stroke-width="1.51"/><path d="M1682,635L1697,773L1694,251Z" fill="#2c336d" stroke="#2c336d" stroke-width="1.51"/><path d="M1532,913L1697,773L1474,834Z" fill="#292b53" stroke="#292b53" stroke-width="1.51"/><path d="M1618,936L1697,773L1532,913Z" fill="#27294a" stroke="#27294a" stroke-width="1.51"/><path d="M1517,1086L1618,936L1532,913Z" fill="#262643" stroke="#262643" stroke-width="1.51"/><path d="M1644,-169L1519,-235L1513,-59Z" fill="#5f6092" stroke="#5f6092" stroke-width="1.51"/><path d="M174,-86L54,-11L90,61Z" fill="#898ef0" stroke="#898ef0" stroke-width="1.51"/><path d="M381,-212L200,-200L379,-97Z" fill="#898fef" stroke="#898fef" stroke-width="1.51"/><path d="M1395,1100L1517,1086L1398,913Z" fill="#272746" stroke="#272746" stroke-width="1.51"/><path d="M84,628L53,820L202,694Z" fill="#5a63bf" stroke="#5a63bf" stroke-width="1.51"/><path d="M-38,648L84,628L73,506Z" fill="#616cd2" stroke="#616cd2" stroke-width="1.51"/><path d="M105,-210L54,-11L174,-86Z" fill="#9094f1" stroke="#9094f1" stroke-width="1.51"/><path d="M90,61L-41,115L112,255Z" fill="#7f85ed" stroke="#7f85ed" stroke-width="1.51"/><path d="M1658,-21L1644,-169L1513,-59Z" fill="#59598c" stroke="#59598c" stroke-width="1.51"/><path d="M1694,251L1644,-169L1658,-21Z" fill="#505184" stroke="#505184" stroke-width="1.51"/><path d="M-69,490L73,506L47,368Z" fill="#6473e7" stroke="#6473e7" stroke-width="1.51"/><path d="M-69,490L-38,648L73,506Z" fill="#6570d9" stroke="#6570d9" stroke-width="1.51"/><path d="M-88,391L-69,490L47,368Z" fill="#6b78e9" stroke="#6b78e9" stroke-width="1.51"/><path d="M186,922L183,1069L404,988Z" fill="#4c5195" stroke="#4c5195" stroke-width="1.51"/><path d="M93,993L183,1069L186,922Z" fill="#525696" stroke="#525696" stroke-width="1.51"/><path d="M93,993L186,922L53,820Z" fill="#565ba2" stroke="#565ba2" stroke-width="1.51"/><path d="M54,-11L-41,115L90,61Z" fill="#878cef" stroke="#878cef" stroke-width="1.51"/><path d="M-81,218L-88,391L47,368Z" fill="#747eeb" stroke="#747eeb" stroke-width="1.51"/><path d="M-76,955L93,993L53,820Z" fill="#5b5ea2" stroke="#5b5ea2" stroke-width="1.51"/><path d="M-41,115L-81,218L112,255Z" fill="#7e85ed" stroke="#7e85ed" stroke-width="1.51"/><path d="M54,-11L-113,-28L-41,115Z" fill="#8e92f1" stroke="#8e92f1" stroke-width="1.51"/><path d="M200,-200L105,-210L174,-86Z" fill="#9296f2" stroke="#9296f2" stroke-width="1.51"/><path d="M381,-212L105,-210L200,-200Z" fill="#9295f2" stroke="#9295f2" stroke-width="1.51"/><path d="M750,-236L105,-210L381,-212Z" fill="#878def" stroke="#878def" stroke-width="1.51"/><path d="M-38,648L-80,774L53,820Z" fill="#6268bc" stroke="#6268bc" stroke-width="1.51"/><path d="M-222,634L-80,774L-38,648Z" fill="#686fc6" stroke="#686fc6" stroke-width="1.51"/><path d="M-173,563L-38,648L-69,490Z" fill="#6a73d7" stroke="#6a73d7" stroke-width="1.51"/><path d="M1395,1100L1646,1134L1517,1086Z" fill="#232236" stroke="#232236" stroke-width="1.51"/><path d="M1517,1086L1646,1134L1618,936Z" fill="#232336" stroke="#232336" stroke-width="1.51"/><path d="M1618,936L1646,1134L1697,773Z" fill="#25253e" stroke="#25253e" stroke-width="1.51"/><path d="M940,1130L1646,1134L1395,1100Z" fill="#262746" stroke="#262746" stroke-width="1.51"/><path d="M532,1139L1646,1134L940,1130Z" fill="#2a2e5d" stroke="#2a2e5d" stroke-width="1.51"/><path d="M93,993L105,1113L183,1069Z" fill="#51548d" stroke="#51548d" stroke-width="1.51"/><path d="M183,1069L105,1113L532,1139Z" fill="#484b85" stroke="#484b85" stroke-width="1.51"/><path d="M-87,1137L105,1113L93,993Z" fill="#56578b" stroke="#56578b" stroke-width="1.51"/><path d="M-191,422L-69,490L-88,391Z" fill="#6f7aea" stroke="#6f7aea" stroke-width="1.51"/><path d="M-191,422L-173,563L-69,490Z" fill="#6f78e4" stroke="#6f78e4" stroke-width="1.51"/><path d="M-181,217L-81,218L-181,78Z" fill="#898eef" stroke="#898eef" stroke-width="1.51"/><path d="M-181,217L-88,391L-81,218Z" fill="#7d85ed" stroke="#7d85ed" stroke-width="1.51"/><path d="M-181,217L-191,422L-88,391Z" fill="#7982ec" stroke="#7982ec" stroke-width="1.51"/><path d="M-181,78L-81,218L-41,115Z" fill="#898eef" stroke="#898eef" stroke-width="1.51"/><path d="M-113,-171L-113,-28L54,-11Z" fill="#979af3" stroke="#979af3" stroke-width="1.51"/><path d="M-198,829L-76,955L-80,774Z" fill="#6568ae" stroke="#6568ae" stroke-width="1.51"/><path d="M-80,774L-76,955L53,820Z" fill="#6064ad" stroke="#6064ad" stroke-width="1.51"/><path d="M-113,-28L-181,78L-41,115Z" fill="#9094f1" stroke="#9094f1" stroke-width="1.51"/><path d="M-223,-26L-222,634L-191,422Z" fill="#7e85ed" stroke="#7e85ed" stroke-width="1.51"/><path d="M-173,563L-222,634L-38,648Z" fill="#6c73d1" stroke="#6c73d1" stroke-width="1.51"/><path d="M-191,422L-222,634L-173,563Z" fill="#7179dd" stroke="#7179dd" stroke-width="1.51"/><path d="M-223,-26L-191,422L-181,217Z" fill="#898ef0" stroke="#898ef0" stroke-width="1.51"/><path d="M105,-210L-113,-171L54,-11Z" fill="#989af3" stroke="#989af3" stroke-width="1.51"/><path d="M-113,-28L-223,-26L-181,78Z" fill="#979af3" stroke="#979af3" stroke-width="1.51"/><path d="M-222,634L-198,829L-80,774Z" fill="#6b6fbe" stroke="#6b6fbe" stroke-width="1.51"/><path d="M-181,78L-223,-26L-181,217Z" fill="#9296f2" stroke="#9296f2" stroke-width="1.51"/><path d="M-113,-171L-223,-26L-113,-28Z" fill="#9d9ff4" stroke="#9d9ff4" stroke-width="1.51"/><path d="M-76,955L-87,1137L93,993Z" fill="#5a5c93" stroke="#5a5c93" stroke-width="1.51"/><path d="M-198,829L-185,978L-76,955Z" fill="#6466a5" stroke="#6466a5" stroke-width="1.51"/><path d="M-228,1061L-185,978L-198,829Z" fill="#6667a0" stroke="#6667a0" stroke-width="1.51"/><path d="M-185,978L-87,1137L-76,955Z" fill="#5f6095" stroke="#5f6095" stroke-width="1.51"/><path d="M105,1113L-87,1137L532,1139Z" fill="#4c4f83" stroke="#4c4f83" stroke-width="1.51"/><path d="M-113,-171L-228,-218L-223,-26Z" fill="#a4a5f6" stroke="#a4a5f6" stroke-width="1.51"/><path d="M-223,-26L-228,-218L-222,634Z" fill="#9194f1" stroke="#9194f1" stroke-width="1.51"/><path d="M105,-210L-228,-218L-113,-171Z" fill="#a2a4f6" stroke="#a2a4f6" stroke-width="1.51"/><path d="M750,-236L-228,-218L105,-210Z" fill="#9497f2" stroke="#9497f2" stroke-width="1.51"/><path d="M-185,978L-228,1061L-87,1137Z" fill="#606191" stroke="#606191" stroke-width="1.51"/><path d="M-222,634L-228,1061L-198,829Z" fill="#6a6db1" stroke="#6a6db1" stroke-width="1.51"/><path d="M-228,-218L-228,1061L-222,634Z" fill="#747de4" stroke="#747de4" stroke-width="1.51"/></svg>