<svg xmlns="http://www.w3.org/2000/svg" width="1440" height="900"><path d="M689,395L775,377L672,269Z" fill="#ffa635" stroke="#ffa635" stroke-width="1.51"/><path d="M775,377L808,259L672,269Z" fill="#fea938" stroke="#fea938" stroke-width="1.51"/><path d="M689,395L835,547L775,377Z" fill="#fd9728" stroke="#fd9728" stroke-width="1.51"/><path d="M473,370L640,520L689,395Z" fill="#ffa635" stroke="#ffa635" stroke-width="1.51"/><path d="M775,377L922,273L808,259Z" fill="#fba235" stroke="#fba235" stroke-width="1.51"/><path d="M955,351L922,273L775,377Z" fill="#f99a30" stroke="#f99a30" stroke-width="1.51"/><path d="M835,547L955,351L775,377Z" fill="#fa9127" stroke="#fa9127" stroke-width="1.51"/><path d="M640,520L835,547L689,395Z" fill="#fc9527" stroke="#fc9527" stroke-width="1.51"/><path d="M672,269L473,370L689,395Z" fill="#ffaf3d" stroke="#ffaf3d" stroke-width="1.51"/><path d="M808,259L625,89L672,269Z" fill="#ffb64b" stroke="#ffb64b" stroke-width="1.51"/><path d="M672,269L460,273L473,370Z" fill="#febb47" stroke="#febb47" stroke-width="1.51"/><path d="M828,72L625,89L808,259Z" fill="#ffb755" stroke="#ffb755" stroke-width="1.51"/><path d="M625,89L460,273L672,269Z" fill="#ffbf52" stroke="#ffbf52" stroke-width="1.51"/><path d="M917,98L828,72L808,259Z" fill="#fdb050" stroke="#fdb050" stroke-width="1.51"/><path d="M922,273L917,98L808,259Z" fill="#fba743" stroke="#fba743" stroke-width="1.51"/><path d="M1056,196L917,98L922,273Z" fill="#f9a344" stroke="#f9a344" stroke-width="1.51"/><path d="M473,370L489,530L640,520Z" fill="#fda736" stroke="#fda736" stroke-width="1.51"/><path d="M640,520L673,649L835,547Z" fill="#f88c23" stroke="#f88c23" stroke-width="1.51"/><path d="M391,492L489,530L473,370Z" fill="#feae3e" stroke="#feae3e" stroke-width="1.51"/><path d="M835,547L943,557L955,351Z" fill="#f6861f" stroke="#f6861f" stroke-width="1.51"/><path d="M895,665L943,557L835,547Z" fill="#f17b1a" stroke="#f17b1a" stroke-width="1.51"/><path d="M524,703L673,649L640,520Z" fill="#f78f28" stroke="#f78f28" stroke-width="1.51"/><path d="M955,351L1056,196L922,273Z" fill="#f69a32" stroke="#f69a32" stroke-width="1.51"/><path d="M943,557L1046,371L955,351Z" fill="#f58721" stroke="#f58721" stroke-width="1.51"/><path d="M460,273L391,371L473,370Z" fill="#ffbe4c" stroke="#ffbe4c" stroke-width="1.51"/><path d="M625,89L505,50L460,273Z" fill="#ffca64" stroke="#ffca64" stroke-width="1.51"/><path d="M460,273L364,267L391,371Z" fill="#ffc454" stroke="#ffc454" stroke-width="1.51"/><path d="M532,-55L505,50L625,89Z" fill="#ffd072" stroke="#ffd072" stroke-width="1.51"/><path d="M358,82L364,267L460,273Z" fill="#ffce65" stroke="#ffce65" stroke-width="1.51"/><path d="M828,72L682,-32L625,89Z" fill="#ffc165" stroke="#ffc165" stroke-width="1.51"/><path d="M825,-96L682,-32L828,72Z" fill="#ffc06a" stroke="#ffc06a" stroke-width="1.51"/><path d="M1046,371L1056,196L955,351Z" fill="#f3942e" stroke="#f3942e" stroke-width="1.51"/><path d="M489,530L524,703L640,520Z" fill="#f9992f" stroke="#f9992f" stroke-width="1.51"/><path d="M391,371L391,492L473,370Z" fill="#ffb748" stroke="#ffb748" stroke-width="1.51"/><path d="M212,528L391,492L391,371Z" fill="#ffb64f" stroke="#ffb64f" stroke-width="1.51"/><path d="M673,649L789,699L835,547Z" fill="#f4811d" stroke="#f4811d" stroke-width="1.51"/><path d="M943,557L1069,516L1046,371Z" fill="#f17e1b" stroke="#f17e1b" stroke-width="1.51"/><path d="M789,699L895,665L835,547Z" fill="#f17b19" stroke="#f17b19" stroke-width="1.51"/><path d="M935,-90L825,-96L828,72Z" fill="#ffba69" stroke="#ffba69" stroke-width="1.51"/><path d="M1056,196L1038,111L917,98Z" fill="#f7a54c" stroke="#f7a54c" stroke-width="1.51"/><path d="M1047,684L1069,516L943,557Z" fill="#ec7215" stroke="#ec7215" stroke-width="1.51"/><path d="M1046,371L1198,220L1056,196Z" fill="#ef9330" stroke="#ef9330" stroke-width="1.51"/><path d="M379,665L524,703L489,530Z" fill="#f79b33" stroke="#f79b33" stroke-width="1.51"/><path d="M669,817L828,777L789,699Z" fill="#e87417" stroke="#e87417" stroke-width="1.51"/><path d="M682,-32L532,-55L625,89Z" fill="#ffcd72" stroke="#ffcd72" stroke-width="1.51"/><path d="M505,50L358,82L460,273Z" fill="#ffd16c" stroke="#ffd16c" stroke-width="1.51"/><path d="M935,-90L828,72L917,98Z" fill="#fdb460" stroke="#fdb460" stroke-width="1.51"/><path d="M682,-32L663,-227L532,-55Z" fill="#ffd07d" stroke="#ffd07d" stroke-width="1.51"/><path d="M386,-33L358,82L505,50Z" fill="#ffd97f" stroke="#ffd97f" stroke-width="1.51"/><path d="M789,699L828,777L895,665Z" fill="#ea7315" stroke="#ea7315" stroke-width="1.51"/><path d="M895,665L1047,684L943,557Z" fill="#ec7114" stroke="#ec7114" stroke-width="1.51"/><path d="M669,817L789,699L673,649Z" fill="#ed7d1b" stroke="#ed7d1b" stroke-width="1.51"/><path d="M1038,111L935,-90L917,98Z" fill="#fbae5c" stroke="#fbae5c" stroke-width="1.51"/><path d="M364,267L254,252L391,371Z" fill="#ffc95e" stroke="#ffc95e" stroke-width="1.51"/><path d="M358,82L254,252L364,267Z" fill="#ffd26f" stroke="#ffd26f" stroke-width="1.51"/><path d="M212,528L379,665L391,492Z" fill="#fbab4b" stroke="#fbab4b" stroke-width="1.51"/><path d="M391,492L379,665L489,530Z" fill="#faa63d" stroke="#faa63d" stroke-width="1.51"/><path d="M975,772L1047,684L895,665Z" fill="#e56910" stroke="#e56910" stroke-width="1.51"/><path d="M825,-96L768,-159L682,-32Z" fill="#ffc574" stroke="#ffc574" stroke-width="1.51"/><path d="M904,-165L768,-159L825,-96Z" fill="#ffc076" stroke="#ffc076" stroke-width="1.51"/><path d="M379,665L520,774L524,703Z" fill="#ef922e" stroke="#ef922e" stroke-width="1.51"/><path d="M524,703L669,817L673,649Z" fill="#ee8522" stroke="#ee8522" stroke-width="1.51"/><path d="M1056,196L1198,220L1038,111Z" fill="#f19a41" stroke="#f19a41" stroke-width="1.51"/><path d="M1038,111L1113,-64L935,-90Z" fill="#f8ad60" stroke="#f8ad60" stroke-width="1.51"/><path d="M1251,349L1198,220L1046,371Z" fill="#ea8928" stroke="#ea8928" stroke-width="1.51"/><path d="M1251,349L1046,371L1230,481Z" fill="#e97d1e" stroke="#e97d1e" stroke-width="1.51"/><path d="M358,82L194,66L254,252Z" fill="#ffdb83" stroke="#ffdb83" stroke-width="1.51"/><path d="M532,-55L386,-33L505,50Z" fill="#ffd87d" stroke="#ffd87d" stroke-width="1.51"/><path d="M471,-202L386,-33L532,-55Z" fill="#ffde88" stroke="#ffde88" stroke-width="1.51"/><path d="M520,774L669,817L524,703Z" fill="#eb8525" stroke="#eb8525" stroke-width="1.51"/><path d="M919,989L975,772L828,777Z" fill="#d9610e" stroke="#d9610e" stroke-width="1.51"/><path d="M828,777L975,772L895,665Z" fill="#e56c12" stroke="#e56c12" stroke-width="1.51"/><path d="M1063,-207L904,-165L935,-90Z" fill="#feb673" stroke="#feb673" stroke-width="1.51"/><path d="M935,-90L904,-165L825,-96Z" fill="#ffbc71" stroke="#ffbc71" stroke-width="1.51"/><path d="M1230,481L1046,371L1069,516Z" fill="#ec7a19" stroke="#ec7a19" stroke-width="1.51"/><path d="M1264,640L1069,516L1047,684Z" fill="#e3670f" stroke="#e3670f" stroke-width="1.51"/><path d="M1264,640L1230,481L1069,516Z" fill="#e36a11" stroke="#e36a11" stroke-width="1.51"/><path d="M254,252L178,334L391,371Z" fill="#ffca64" stroke="#ffca64" stroke-width="1.51"/><path d="M91,250L178,334L254,252Z" fill="#ffd473" stroke="#ffd473" stroke-width="1.51"/><path d="M178,334L212,528L391,371Z" fill="#ffc15e" stroke="#ffc15e" stroke-width="1.51"/><path d="M1243,67L1113,-64L1038,111Z" fill="#f1a356" stroke="#f1a356" stroke-width="1.51"/><path d="M1243,67L1038,111L1198,220Z" fill="#ee9a48" stroke="#ee9a48" stroke-width="1.51"/><path d="M904,-165L663,-227L768,-159Z" fill="#ffc67d" stroke="#ffc67d" stroke-width="1.51"/><path d="M768,-159L663,-227L682,-32Z" fill="#ffcb7c" stroke="#ffcb7c" stroke-width="1.51"/><path d="M663,-227L471,-202L532,-55Z" fill="#ffd789" stroke="#ffd789" stroke-width="1.51"/><path d="M386,-33L194,66L358,82Z" fill="#ffe08b" stroke="#ffe08b" stroke-width="1.51"/><path d="M1335,83L1243,67L1198,220Z" fill="#e69546" stroke="#e69546" stroke-width="1.51"/><path d="M192,-73L194,66L386,-33Z" fill="#ffe699" stroke="#ffe699" stroke-width="1.51"/><path d="M975,772L1091,787L1047,684Z" fill="#dd600c" stroke="#dd600c" stroke-width="1.51"/><path d="M1093,952L1091,787L975,772Z" fill="#d35707" stroke="#d35707" stroke-width="1.51"/><path d="M379,665L342,798L520,774Z" fill="#ed9336" stroke="#ed9336" stroke-width="1.51"/><path d="M466,940L680,941L669,817Z" fill="#d9771f" stroke="#d9771f" stroke-width="1.51"/><path d="M240,795L342,798L379,665Z" fill="#ee9942" stroke="#ee9942" stroke-width="1.51"/><path d="M471,-202L403,-195L386,-33Z" fill="#ffe193" stroke="#ffe193" stroke-width="1.51"/><path d="M202,-201L403,-195L471,-202Z" fill="#ffe6a1" stroke="#ffe6a1" stroke-width="1.51"/><path d="M96,566L185,624L212,528Z" fill="#fcb35d" stroke="#fcb35d" stroke-width="1.51"/><path d="M212,528L185,624L379,665Z" fill="#faab51" stroke="#faab51" stroke-width="1.51"/><path d="M669,817L811,961L828,777Z" fill="#de6c14" stroke="#de6c14" stroke-width="1.51"/><path d="M466,940L669,817L520,774Z" fill="#e28024" stroke="#e28024" stroke-width="1.51"/><path d="M1091,787L1264,640L1047,684Z" fill="#db5d0a" stroke="#db5d0a" stroke-width="1.51"/><path d="M1230,481L1412,392L1251,349Z" fill="#de751b" stroke="#de751b" stroke-width="1.51"/><path d="M1403,195L1335,83L1198,220Z" fill="#e08e3e" stroke="#e08e3e" stroke-width="1.51"/><path d="M1113,-64L1063,-207L935,-90Z" fill="#f9b16c" stroke="#f9b16c" stroke-width="1.51"/><path d="M1243,67L1194,-89L1113,-64Z" fill="#efa35c" stroke="#efa35c" stroke-width="1.51"/><path d="M194,66L91,250L254,252Z" fill="#ffdc82" stroke="#ffdc82" stroke-width="1.51"/><path d="M178,334L84,374L212,528Z" fill="#ffc568" stroke="#ffc568" stroke-width="1.51"/><path d="M1194,-89L1063,-207L1113,-64Z" fill="#f4ab69" stroke="#f4ab69" stroke-width="1.51"/><path d="M904,-165L1063,-207L663,-227Z" fill="#ffbe7b" stroke="#ffbe7b" stroke-width="1.51"/><path d="M91,250L84,374L178,334Z" fill="#ffd175" stroke="#ffd175" stroke-width="1.51"/><path d="M680,941L811,961L669,817Z" fill="#d76c16" stroke="#d76c16" stroke-width="1.51"/><path d="M1384,-49L1267,-155L1194,-89Z" fill="#e7a062" stroke="#e7a062" stroke-width="1.51"/><path d="M1403,195L1198,220L1251,349Z" fill="#e1882d" stroke="#e1882d" stroke-width="1.51"/><path d="M403,-195L192,-73L386,-33Z" fill="#ffe69a" stroke="#ffe69a" stroke-width="1.51"/><path d="M194,66L64,92L91,250Z" fill="#ffe392" stroke="#ffe392" stroke-width="1.51"/><path d="M680,941L623,1080L811,961Z" fill="#ca6817" stroke="#ca6817" stroke-width="1.51"/><path d="M342,798L466,940L520,774Z" fill="#e3892e" stroke="#e3892e" stroke-width="1.51"/><path d="M332,949L466,940L342,798Z" fill="#db8936" stroke="#db8936" stroke-width="1.51"/><path d="M84,374L96,566L212,528Z" fill="#ffbd65" stroke="#ffbd65" stroke-width="1.51"/><path d="M185,624L240,795L379,665Z" fill="#f3a14c" stroke="#f3a14c" stroke-width="1.51"/><path d="M75,812L240,795L185,624Z" fill="#f0a254" stroke="#f0a254" stroke-width="1.51"/><path d="M811,961L919,989L828,777Z" fill="#d26210" stroke="#d26210" stroke-width="1.51"/><path d="M1091,787L1247,843L1264,640Z" fill="#d25305" stroke="#d25305" stroke-width="1.51"/><path d="M961,1074L919,989L823,1114Z" fill="#ba540f" stroke="#ba540f" stroke-width="1.51"/><path d="M1400,547L1412,392L1230,481Z" fill="#d76a14" stroke="#d76a14" stroke-width="1.51"/><path d="M1412,392L1403,195L1251,349Z" fill="#d97d25" stroke="#d97d25" stroke-width="1.51"/><path d="M91,250L-82,341L84,374Z" fill="#ffd57c" stroke="#ffd57c" stroke-width="1.51"/><path d="M-64,513L50,639L96,566Z" fill="#feb869" stroke="#feb869" stroke-width="1.51"/><path d="M84,-26L64,92L194,66Z" fill="#ffe99f" stroke="#ffe99f" stroke-width="1.51"/><path d="M1371,675L1400,547L1264,640Z" fill="#d0590b" stroke="#d0590b" stroke-width="1.51"/><path d="M1264,640L1400,547L1230,481Z" fill="#d86310" stroke="#d86310" stroke-width="1.51"/><path d="M192,-73L84,-26L194,66Z" fill="#ffeba2" stroke="#ffeba2" stroke-width="1.51"/><path d="M57,-159L84,-26L192,-73Z" fill="#fff1af" stroke="#fff1af" stroke-width="1.51"/><path d="M919,989L1093,952L975,772Z" fill="#cd560a" stroke="#cd560a" stroke-width="1.51"/><path d="M1194,-89L1267,-155L1063,-207Z" fill="#f1a86b" stroke="#f1a86b" stroke-width="1.51"/><path d="M1384,-49L1194,-89L1243,67Z" fill="#e79d5a" stroke="#e79d5a" stroke-width="1.51"/><path d="M1384,-49L1243,67L1335,83Z" fill="#e19752" stroke="#e19752" stroke-width="1.51"/><path d="M240,795L332,949L342,798Z" fill="#e49141" stroke="#e49141" stroke-width="1.51"/><path d="M466,940L623,1080L680,941Z" fill="#cd7220" stroke="#cd7220" stroke-width="1.51"/><path d="M183,967L332,949L240,795Z" fill="#db9047" stroke="#db9047" stroke-width="1.51"/><path d="M1181,910L1247,843L1091,787Z" fill="#c94d04" stroke="#c94d04" stroke-width="1.51"/><path d="M1247,843L1371,675L1264,640Z" fill="#cd5206" stroke="#cd5206" stroke-width="1.51"/><path d="M96,566L50,639L185,624Z" fill="#fcb160" stroke="#fcb160" stroke-width="1.51"/><path d="M-64,513L96,566L84,374Z" fill="#ffc16d" stroke="#ffc16d" stroke-width="1.51"/><path d="M403,-195L202,-201L192,-73Z" fill="#ffeba8" stroke="#ffeba8" stroke-width="1.51"/><path d="M663,-227L202,-201L471,-202Z" fill="#ffe197" stroke="#ffe197" stroke-width="1.51"/><path d="M1093,952L1181,910L1091,787Z" fill="#c84e06" stroke="#c84e06" stroke-width="1.51"/><path d="M510,1133L623,1080L466,940Z" fill="#c27324" stroke="#c27324" stroke-width="1.51"/><path d="M919,989L961,1074L1093,952Z" fill="#bf500a" stroke="#bf500a" stroke-width="1.51"/><path d="M1506,128L1384,-49L1335,83Z" fill="#d7914f" stroke="#d7914f" stroke-width="1.51"/><path d="M1403,195L1506,128L1335,83Z" fill="#d58b43" stroke="#d58b43" stroke-width="1.51"/><path d="M1412,392L1483,204L1403,195Z" fill="#d17f2a" stroke="#d17f2a" stroke-width="1.51"/><path d="M1526,351L1483,204L1412,392Z" fill="#cc7724" stroke="#cc7724" stroke-width="1.51"/><path d="M1526,351L1412,392L1536,511Z" fill="#c96a19" stroke="#c96a19" stroke-width="1.51"/><path d="M64,92L-51,222L91,250Z" fill="#ffe18f" stroke="#ffe18f" stroke-width="1.51"/><path d="M-50,56L-51,222L64,92Z" fill="#ffe99f" stroke="#ffe99f" stroke-width="1.51"/><path d="M823,1114L919,989L811,961Z" fill="#c25a10" stroke="#c25a10" stroke-width="1.51"/><path d="M1093,952L1187,1101L1181,910Z" fill="#b74505" stroke="#b74505" stroke-width="1.51"/><path d="M623,1080L823,1114L811,961Z" fill="#c06115" stroke="#c06115" stroke-width="1.51"/><path d="M-51,222L-82,341L91,250Z" fill="#ffdc85" stroke="#ffdc85" stroke-width="1.51"/><path d="M-82,341L-64,513L84,374Z" fill="#ffcd78" stroke="#ffcd78" stroke-width="1.51"/><path d="M1536,511L1412,392L1400,547Z" fill="#cc6413" stroke="#cc6413" stroke-width="1.51"/><path d="M-54,789L75,812L50,639Z" fill="#f2a761" stroke="#f2a761" stroke-width="1.51"/><path d="M50,639L75,812L185,624Z" fill="#f6a95c" stroke="#f6a95c" stroke-width="1.51"/><path d="M1483,204L1506,128L1403,195Z" fill="#cf853a" stroke="#cf853a" stroke-width="1.51"/><path d="M1624,241L1506,128L1483,204Z" fill="#c78037" stroke="#c78037" stroke-width="1.51"/><path d="M-51,222L-200,235L-82,341Z" fill="#ffdf8e" stroke="#ffdf8e" stroke-width="1.51"/><path d="M84,-26L-50,56L64,92Z" fill="#ffeda6" stroke="#ffeda6" stroke-width="1.51"/><path d="M-67,-58L-50,56L84,-26Z" fill="#fff1b0" stroke="#fff1b0" stroke-width="1.51"/><path d="M202,-201L57,-159L192,-73Z" fill="#fff0b2" stroke="#fff0b2" stroke-width="1.51"/><path d="M623,1080L510,1133L823,1114Z" fill="#b9661c" stroke="#b9661c" stroke-width="1.51"/><path d="M332,949L400,1085L466,940Z" fill="#cd8032" stroke="#cd8032" stroke-width="1.51"/><path d="M242,1089L400,1085L332,949Z" fill="#c6823b" stroke="#c6823b" stroke-width="1.51"/><path d="M400,1085L510,1133L466,940Z" fill="#c3792a" stroke="#c3792a" stroke-width="1.51"/><path d="M75,812L183,967L240,795Z" fill="#e39751" stroke="#e39751" stroke-width="1.51"/><path d="M1540,642L1400,547L1371,675Z" fill="#c6550c" stroke="#c6550c" stroke-width="1.51"/><path d="M1540,642L1536,511L1400,547Z" fill="#c4590f" stroke="#c4590f" stroke-width="1.51"/><path d="M-64,513L-76,632L50,639Z" fill="#feb86c" stroke="#feb86c" stroke-width="1.51"/><path d="M81,1101L242,1089L183,967Z" fill="#c6894d" stroke="#c6894d" stroke-width="1.51"/><path d="M-225,520L-76,632L-64,513Z" fill="#ffbe76" stroke="#ffbe76" stroke-width="1.51"/><path d="M1247,843L1410,846L1371,675Z" fill="#c24803" stroke="#c24803" stroke-width="1.51"/><path d="M1401,997L1410,846L1247,843Z" fill="#b24003" stroke="#b24003" stroke-width="1.51"/><path d="M1401,997L1247,843L1181,910Z" fill="#b74203" stroke="#b74203" stroke-width="1.51"/><path d="M961,1074L1052,1136L1093,952Z" fill="#b44a0a" stroke="#b44a0a" stroke-width="1.51"/><path d="M823,1114L1052,1136L961,1074Z" fill="#b14e0e" stroke="#b14e0e" stroke-width="1.51"/><path d="M510,1133L1052,1136L823,1114Z" fill="#b35914" stroke="#b35914" stroke-width="1.51"/><path d="M-220,113L-200,235L-51,222Z" fill="#ffe69f" stroke="#ffe69f" stroke-width="1.51"/><path d="M57,-159L-67,-58L84,-26Z" fill="#fff4b6" stroke="#fff4b6" stroke-width="1.51"/><path d="M1384,-49L1409,-217L1267,-155Z" fill="#e09d65" stroke="#e09d65" stroke-width="1.51"/><path d="M1267,-155L1409,-217L1063,-207Z" fill="#eda46d" stroke="#eda46d" stroke-width="1.51"/><path d="M1063,-207L1409,-217L663,-227Z" fill="#fab277" stroke="#fab277" stroke-width="1.51"/><path d="M1504,-167L1409,-217L1384,-49Z" fill="#d89864" stroke="#d89864" stroke-width="1.51"/><path d="M1507,794L1540,642L1371,675Z" fill="#bc4a07" stroke="#bc4a07" stroke-width="1.51"/><path d="M1506,128L1515,-56L1384,-49Z" fill="#d29053" stroke="#d29053" stroke-width="1.51"/><path d="M1684,87L1515,-56L1506,128Z" fill="#c5894d" stroke="#c5894d" stroke-width="1.51"/><path d="M1624,241L1483,204L1526,351Z" fill="#c57a29" stroke="#c57a29" stroke-width="1.51"/><path d="M84,968L183,967L75,812Z" fill="#dc9553" stroke="#dc9553" stroke-width="1.51"/><path d="M183,967L242,1089L332,949Z" fill="#cd8945" stroke="#cd8945" stroke-width="1.51"/><path d="M400,1085L242,1089L510,1133Z" fill="#bc7b34" stroke="#bc7b34" stroke-width="1.51"/><path d="M-76,632L-54,789L50,639Z" fill="#f8af67" stroke="#f8af67" stroke-width="1.51"/><path d="M-67,948L84,968L75,812Z" fill="#de995a" stroke="#de995a" stroke-width="1.51"/><path d="M1052,1136L1187,1101L1093,952Z" fill="#ae4408" stroke="#ae4408" stroke-width="1.51"/><path d="M1640,350L1526,351L1536,511Z" fill="#c1691b" stroke="#c1691b" stroke-width="1.51"/><path d="M1640,350L1624,241L1526,351Z" fill="#be7224" stroke="#be7224" stroke-width="1.51"/><path d="M1522,911L1507,794L1410,846Z" fill="#ac3d04" stroke="#ac3d04" stroke-width="1.51"/><path d="M1410,846L1507,794L1371,675Z" fill="#ba4605" stroke="#ba4605" stroke-width="1.51"/><path d="M1621,556L1640,350L1536,511Z" fill="#bc5f15" stroke="#bc5f15" stroke-width="1.51"/><path d="M1621,556L1536,511L1540,642Z" fill="#bb5610" stroke="#bb5610" stroke-width="1.51"/><path d="M-220,113L-51,222L-50,56Z" fill="#ffeaa6" stroke="#ffeaa6" stroke-width="1.51"/><path d="M-82,341L-223,382L-64,513Z" fill="#ffce80" stroke="#ffce80" stroke-width="1.51"/><path d="M-76,632L-225,658L-54,789Z" fill="#f8b06f" stroke="#f8b06f" stroke-width="1.51"/><path d="M1614,-171L1504,-167L1515,-56Z" fill="#cb9361" stroke="#cb9361" stroke-width="1.51"/><path d="M1515,-56L1504,-167L1384,-49Z" fill="#d3955e" stroke="#d3955e" stroke-width="1.51"/><path d="M1650,683L1621,556L1540,642Z" fill="#b44e0d" stroke="#b44e0d" stroke-width="1.51"/><path d="M-200,235L-223,382L-82,341Z" fill="#ffd98d" stroke="#ffd98d" stroke-width="1.51"/><path d="M1187,1101L1401,997L1181,910Z" fill="#ad3e03" stroke="#ad3e03" stroke-width="1.51"/><path d="M-200,235L-220,113L-223,382Z" fill="#ffe39a" stroke="#ffe39a" stroke-width="1.51"/><path d="M-67,-58L-220,113L-50,56Z" fill="#fff1b3" stroke="#fff1b3" stroke-width="1.51"/><path d="M-223,382L-225,520L-64,513Z" fill="#ffc87f" stroke="#ffc87f" stroke-width="1.51"/><path d="M-238,-93L-225,520L-223,382Z" fill="#ffe096" stroke="#ffe096" stroke-width="1.51"/><path d="M57,-159L-86,-210L-67,-58Z" fill="#fff8c2" stroke="#fff8c2" stroke-width="1.51"/><path d="M-67,-58L-238,-93L-220,113Z" fill="#fff4bf" stroke="#fff4bf" stroke-width="1.51"/><path d="M202,-201L-86,-210L57,-159Z" fill="#fff5c0" stroke="#fff5c0" stroke-width="1.51"/><path d="M663,-227L-86,-210L202,-201Z" fill="#ffedaf" stroke="#ffedaf" stroke-width="1.51"/><path d="M1401,997L1522,911L1410,846Z" fill="#a63a04" stroke="#a63a04" stroke-width="1.51"/><path d="M1507,794L1650,683L1540,642Z" fill="#b14709" stroke="#b14709" stroke-width="1.51"/><path d="M1624,241L1684,87L1506,128Z" fill="#bf803e" stroke="#bf803e" stroke-width="1.51"/><path d="M1640,350L1684,87L1624,241Z" fill="#ba7931" stroke="#ba7931" stroke-width="1.51"/><path d="M1650,683L1684,87L1640,350Z" fill="#b8691f" stroke="#b8691f" stroke-width="1.51"/><path d="M1621,556L1650,683L1640,350Z" fill="#b55712" stroke="#b55712" stroke-width="1.51"/><path d="M1670,826L1650,683L1507,794Z" fill="#a84007" stroke="#a84007" stroke-width="1.51"/><path d="M-225,520L-225,658L-76,632Z" fill="#ffb978" stroke="#ffb978" stroke-width="1.51"/><path d="M-54,789L-67,948L75,812Z" fill="#e79f5f" stroke="#e79f5f" stroke-width="1.51"/><path d="M-206,820L-67,948L-54,789Z" fill="#e8a167" stroke="#e8a167" stroke-width="1.51"/><path d="M84,968L81,1101L183,967Z" fill="#cd8e51" stroke="#cd8e51" stroke-width="1.51"/><path d="M1052,1136L1345,1111L1187,1101Z" fill="#a13c06" stroke="#a13c06" stroke-width="1.51"/><path d="M1187,1101L1345,1111L1401,997Z" fill="#9e3805" stroke="#9e3805" stroke-width="1.51"/><path d="M1401,997L1525,1082L1522,911Z" fill="#973404" stroke="#973404" stroke-width="1.51"/><path d="M-30,1070L81,1101L84,968Z" fill="#c88e56" stroke="#c88e56" stroke-width="1.51"/><path d="M242,1089L81,1101L510,1133Z" fill="#bc8041" stroke="#bc8041" stroke-width="1.51"/><path d="M1684,87L1652,-66L1515,-56Z" fill="#c18a54" stroke="#c18a54" stroke-width="1.51"/><path d="M1504,-167L1614,-171L1409,-217Z" fill="#d09568" stroke="#d09568" stroke-width="1.51"/><path d="M1652,-66L1614,-171L1515,-56Z" fill="#c5905e" stroke="#c5905e" stroke-width="1.51"/><path d="M-86,-210L-179,-194L-67,-58Z" fill="#fff9c9" stroke="#fff9c9" stroke-width="1.51"/><path d="M-220,113L-238,-93L-223,382Z" fill="#ffecae" stroke="#ffecae" stroke-width="1.51"/><path d="M-225,520L-242,983L-225,658Z" fill="#f7ae76" stroke="#f7ae76" stroke-width="1.51"/><path d="M-179,-194L-238,-93L-67,-58Z" fill="#fff9c9" stroke="#fff9c9" stroke-width="1.51"/><path d="M-67,948L-30,1070L84,968Z" fill="#d1935b" stroke="#d1935b" stroke-width="1.51"/><path d="M-225,658L-206,820L-54,789Z" fill="#f4aa6f" stroke="#f4aa6f" stroke-width="1.51"/><path d="M-200,1096L-30,1070L-67,948Z" fill="#cb9362" stroke="#cb9362" stroke-width="1.51"/><path d="M1635,967L1670,826L1522,911Z" fill="#983605" stroke="#983605" stroke-width="1.51"/><path d="M1522,911L1670,826L1507,794Z" fill="#a33b05" stroke="#a33b05" stroke-width="1.51"/><path d="M1650,683L1670,826L1684,87Z" fill="#b25612" stroke="#b25612" stroke-width="1.51"/><path d="M1345,1111L1525,1082L1401,997Z" fill="#933305" stroke="#933305" stroke-width="1.51"/><path d="M1525,1082L1635,967L1522,911Z" fill="#903205" stroke="#903205" stroke-width="1.51"/><path d="M-206,820L-242,983L-67,948Z" fill="#de9c6a" stroke="#de9c6a" stroke-width="1.51"/><path d="M-225,658L-242,983L-206,820Z" fill="#eea571" stroke="#eea571" stroke-width="1.51"/><path d="M-238,-93L-242,983L-225,520Z" fill="#ffc984" stroke="#ffc984" stroke-width="1.51"/><path d="M1525,1082L1638,1097L1635,967Z" fill="#842e06" stroke="#842e06" stroke-width="1.51"/><path d="M1635,967L1638,1097L1670,826Z" fill="#8b3005" stroke="#8b3005" stroke-width="1.51"/><path d="M1345,1111L1638,1097L1525,1082Z" fill="#862f06" stroke="#862f06" stroke-width="1.51"/><path d="M1052,1136L1638,1097L1345,1111Z" fill="#933505" stroke="#933505" stroke-width="1.51"/><path d="M-242,983L-200,1096L-67,948Z" fill="#d09568" stroke="#d09568" stroke-width="1.51"/><path d="M-30,1070L-200,1096L81,1101Z" fill="#c28f5d" stroke="#c28f5d" stroke-width="1.51"/><path d="M81,1101L-200,1096L510,1133Z" fill="#bd874f" stroke="#bd874f" stroke-width="1.51"/></svg>