<svg xmlns="http://www.w3.org/2000/svg" width="1440" height="900"><path d="M738,490L850,499L720,407Z" fill="#fa6445" stroke="#fa6445" stroke-width="1.51"/><path d="M850,499L871,378L720,407Z" fill="#f96546" stroke="#f96546" stroke-width="1.51"/><path d="M871,378L724,253L720,407Z" fill="#fb7354" stroke="#fb7354" stroke-width="1.51"/><path d="M738,490L729,619L850,499Z" fill="#f75a3e" stroke="#f75a3e" stroke-width="1.51"/><path d="M563,525L729,619L738,490Z" fill="#f86244" stroke="#f86244" stroke-width="1.51"/><path d="M871,378L863,242L724,253Z" fill="#fa7657" stroke="#fa7657" stroke-width="1.51"/><path d="M850,499L981,533L871,378Z" fill="#f6583d" stroke="#f6583d" stroke-width="1.51"/><path d="M871,378L991,255L863,242Z" fill="#f86f52" stroke="#f86f52" stroke-width="1.51"/><path d="M832,653L981,533L850,499Z" fill="#f34b35" stroke="#f34b35" stroke-width="1.51"/><path d="M720,407L588,410L738,490Z" fill="#fb704f" stroke="#fb704f" stroke-width="1.51"/><path d="M592,249L588,410L720,407Z" fill="#fc7e5c" stroke="#fc7e5c" stroke-width="1.51"/><path d="M981,533L1006,384L871,378Z" fill="#f6583d" stroke="#f6583d" stroke-width="1.51"/><path d="M729,619L832,653L850,499Z" fill="#f44f38" stroke="#f44f38" stroke-width="1.51"/><path d="M588,410L563,525L738,490Z" fill="#fb6f4f" stroke="#fb6f4f" stroke-width="1.51"/><path d="M1006,384L991,255L871,378Z" fill="#f76549" stroke="#f76549" stroke-width="1.51"/><path d="M724,253L592,249L720,407Z" fill="#fc805f" stroke="#fc805f" stroke-width="1.51"/><path d="M588,410L473,497L563,525Z" fill="#fb7656" stroke="#fb7656" stroke-width="1.51"/><path d="M604,148L592,249L724,253Z" fill="#fd8f6e" stroke="#fd8f6e" stroke-width="1.51"/><path d="M832,653L962,667L981,533Z" fill="#f03f2e" stroke="#f03f2e" stroke-width="1.51"/><path d="M1112,505L1111,404L1006,384Z" fill="#ed513a" stroke="#ed513a" stroke-width="1.51"/><path d="M563,525L585,645L729,619Z" fill="#f75f44" stroke="#f75f44" stroke-width="1.51"/><path d="M744,796L868,778L832,653Z" fill="#e5402f" stroke="#e5402f" stroke-width="1.51"/><path d="M832,653L868,778L962,667Z" fill="#e73c2c" stroke="#e73c2c" stroke-width="1.51"/><path d="M863,242L746,127L724,253Z" fill="#fc8565" stroke="#fc8565" stroke-width="1.51"/><path d="M865,114L746,127L863,242Z" fill="#fc8869" stroke="#fc8869" stroke-width="1.51"/><path d="M1112,505L1006,384L981,533Z" fill="#ef4d36" stroke="#ef4d36" stroke-width="1.51"/><path d="M1006,384L1088,246L991,255Z" fill="#f2674b" stroke="#f2674b" stroke-width="1.51"/><path d="M1090,646L1112,505L981,533Z" fill="#ea3e2d" stroke="#ea3e2d" stroke-width="1.51"/><path d="M993,124L865,114L863,242Z" fill="#fb8264" stroke="#fb8264" stroke-width="1.51"/><path d="M592,249L474,390L588,410Z" fill="#fc8564" stroke="#fc8564" stroke-width="1.51"/><path d="M563,525L462,624L585,645Z" fill="#f7684b" stroke="#f7684b" stroke-width="1.51"/><path d="M474,390L473,497L588,410Z" fill="#fc7e5d" stroke="#fc7e5d" stroke-width="1.51"/><path d="M1111,404L1088,246L1006,384Z" fill="#ef5e44" stroke="#ef5e44" stroke-width="1.51"/><path d="M991,255L993,124L863,242Z" fill="#f9785b" stroke="#f9785b" stroke-width="1.51"/><path d="M592,249L449,269L474,390Z" fill="#fc8f6d" stroke="#fc8f6d" stroke-width="1.51"/><path d="M746,127L604,148L724,253Z" fill="#fe9070" stroke="#fe9070" stroke-width="1.51"/><path d="M744,796L832,653L729,619Z" fill="#ec4a34" stroke="#ec4a34" stroke-width="1.51"/><path d="M962,667L1090,646L981,533Z" fill="#eb382a" stroke="#eb382a" stroke-width="1.51"/><path d="M977,758L1090,646L962,667Z" fill="#e23127" stroke="#e23127" stroke-width="1.51"/><path d="M1088,246L993,124L991,255Z" fill="#f47357" stroke="#f47357" stroke-width="1.51"/><path d="M603,789L744,796L729,619Z" fill="#e84d38" stroke="#e84d38" stroke-width="1.51"/><path d="M868,778L977,758L962,667Z" fill="#e23328" stroke="#e23328" stroke-width="1.51"/><path d="M434,149L449,269L592,249Z" fill="#fd9a7a" stroke="#fd9a7a" stroke-width="1.51"/><path d="M325,407L338,536L473,497Z" fill="#fc8464" stroke="#fc8464" stroke-width="1.51"/><path d="M585,645L603,789L729,619Z" fill="#ee573e" stroke="#ee573e" stroke-width="1.51"/><path d="M473,497L462,624L563,525Z" fill="#f97153" stroke="#f97153" stroke-width="1.51"/><path d="M338,536L462,624L473,497Z" fill="#fa7759" stroke="#fa7759" stroke-width="1.51"/><path d="M442,784L603,789L585,645Z" fill="#e95c43" stroke="#e95c43" stroke-width="1.51"/><path d="M1228,237L1098,141L1088,246Z" fill="#ec6d53" stroke="#ec6d53" stroke-width="1.51"/><path d="M1088,246L1098,141L993,124Z" fill="#f3775b" stroke="#f3775b" stroke-width="1.51"/><path d="M1111,404L1221,373L1088,246Z" fill="#ea5a42" stroke="#ea5a42" stroke-width="1.51"/><path d="M1112,505L1221,373L1111,404Z" fill="#e84e38" stroke="#e84e38" stroke-width="1.51"/><path d="M1257,540L1221,373L1112,505Z" fill="#e34432" stroke="#e34432" stroke-width="1.51"/><path d="M746,127L705,11L604,148Z" fill="#ff9a7c" stroke="#ff9a7c" stroke-width="1.51"/><path d="M604,148L434,149L592,249Z" fill="#fd9b7c" stroke="#fd9b7c" stroke-width="1.51"/><path d="M845,-31L705,11L746,127Z" fill="#ff9c7e" stroke="#ff9c7e" stroke-width="1.51"/><path d="M845,-31L746,127L865,114Z" fill="#fe9477" stroke="#fe9477" stroke-width="1.51"/><path d="M845,-31L865,114L975,-22Z" fill="#ff9478" stroke="#ff9478" stroke-width="1.51"/><path d="M325,407L473,497L474,390Z" fill="#fd8665" stroke="#fd8665" stroke-width="1.51"/><path d="M466,21L434,149L604,148Z" fill="#fea78a" stroke="#fea78a" stroke-width="1.51"/><path d="M977,758L1102,787L1090,646Z" fill="#db2923" stroke="#db2923" stroke-width="1.51"/><path d="M1090,646L1257,540L1112,505Z" fill="#e3382a" stroke="#e3382a" stroke-width="1.51"/><path d="M987,897L1102,787L977,758Z" fill="#d32621" stroke="#d32621" stroke-width="1.51"/><path d="M987,897L977,758L868,778Z" fill="#d92c24" stroke="#d92c24" stroke-width="1.51"/><path d="M975,-22L865,114L993,124Z" fill="#fc896e" stroke="#fc896e" stroke-width="1.51"/><path d="M1250,664L1257,540L1090,646Z" fill="#dd2b24" stroke="#dd2b24" stroke-width="1.51"/><path d="M1221,373L1228,237L1088,246Z" fill="#e76048" stroke="#e76048" stroke-width="1.51"/><path d="M1372,277L1228,237L1221,373Z" fill="#e05b44" stroke="#e05b44" stroke-width="1.51"/><path d="M325,407L474,390L449,269Z" fill="#fd8f6f" stroke="#fd8f6f" stroke-width="1.51"/><path d="M442,784L590,882L603,789Z" fill="#df5740" stroke="#df5740" stroke-width="1.51"/><path d="M325,236L325,407L449,269Z" fill="#fd9a7a" stroke="#fd9a7a" stroke-width="1.51"/><path d="M705,11L571,15L604,148Z" fill="#ffa486" stroke="#ffa486" stroke-width="1.51"/><path d="M573,-126L571,15L705,11Z" fill="#ffaf95" stroke="#ffaf95" stroke-width="1.51"/><path d="M744,796L831,919L868,778Z" fill="#da3c2c" stroke="#da3c2c" stroke-width="1.51"/><path d="M603,789L702,909L744,796Z" fill="#dc4934" stroke="#dc4934" stroke-width="1.51"/><path d="M590,882L702,909L603,789Z" fill="#da4d37" stroke="#da4d37" stroke-width="1.51"/><path d="M702,909L831,919L744,796Z" fill="#d6402e" stroke="#d6402e" stroke-width="1.51"/><path d="M1103,8L975,-22L993,124Z" fill="#f9896f" stroke="#f9896f" stroke-width="1.51"/><path d="M1103,8L993,124L1098,141Z" fill="#f48166" stroke="#f48166" stroke-width="1.51"/><path d="M442,784L585,645L462,624Z" fill="#ef6449" stroke="#ef6449" stroke-width="1.51"/><path d="M338,536L357,666L462,624Z" fill="#f97457" stroke="#f97457" stroke-width="1.51"/><path d="M357,666L442,784L462,624Z" fill="#ef6a50" stroke="#ef6a50" stroke-width="1.51"/><path d="M831,919L987,897L868,778Z" fill="#d43126" stroke="#d43126" stroke-width="1.51"/><path d="M1255,776L1250,664L1102,787Z" fill="#cf1d1e" stroke="#cf1d1e" stroke-width="1.51"/><path d="M1102,787L1250,664L1090,646Z" fill="#d82622" stroke="#d82622" stroke-width="1.51"/><path d="M314,104L325,236L434,149Z" fill="#fdac8f" stroke="#fdac8f" stroke-width="1.51"/><path d="M434,149L325,236L449,269Z" fill="#fda283" stroke="#fda283" stroke-width="1.51"/><path d="M1226,99L1103,8L1098,141Z" fill="#ee7e65" stroke="#ee7e65" stroke-width="1.51"/><path d="M571,15L466,21L604,148Z" fill="#ffa98c" stroke="#ffa98c" stroke-width="1.51"/><path d="M573,-126L466,21L571,15Z" fill="#ffb59b" stroke="#ffb59b" stroke-width="1.51"/><path d="M1228,237L1226,99L1098,141Z" fill="#ea7258" stroke="#ea7258" stroke-width="1.51"/><path d="M1375,144L1226,99L1228,237Z" fill="#e26f56" stroke="#e26f56" stroke-width="1.51"/><path d="M1257,540L1349,492L1221,373Z" fill="#dd4330" stroke="#dd4330" stroke-width="1.51"/><path d="M1356,630L1349,492L1257,540Z" fill="#d63428" stroke="#d63428" stroke-width="1.51"/><path d="M357,666L342,754L442,784Z" fill="#eb6b51" stroke="#eb6b51" stroke-width="1.51"/><path d="M442,784L463,916L590,882Z" fill="#da5942" stroke="#da5942" stroke-width="1.51"/><path d="M192,662L342,754L357,666Z" fill="#f1765b" stroke="#f1765b" stroke-width="1.51"/><path d="M192,662L357,666L338,536Z" fill="#f97b5f" stroke="#f97b5f" stroke-width="1.51"/><path d="M1349,492L1365,378L1221,373Z" fill="#db4a35" stroke="#db4a35" stroke-width="1.51"/><path d="M1250,664L1356,630L1257,540Z" fill="#d62a23" stroke="#d62a23" stroke-width="1.51"/><path d="M1257,878L1255,776L1102,787Z" fill="#c6171c" stroke="#c6171c" stroke-width="1.51"/><path d="M987,897L1116,914L1102,787Z" fill="#ca211e" stroke="#ca211e" stroke-width="1.51"/><path d="M1110,1026L1116,914L987,897Z" fill="#c01e1d" stroke="#c01e1d" stroke-width="1.51"/><path d="M325,407L186,503L338,536Z" fill="#fd8c6d" stroke="#fd8c6d" stroke-width="1.51"/><path d="M325,236L224,387L325,407Z" fill="#fd9b7d" stroke="#fd9b7d" stroke-width="1.51"/><path d="M217,243L224,387L325,236Z" fill="#fda587" stroke="#fda587" stroke-width="1.51"/><path d="M466,21L314,104L434,149Z" fill="#feb195" stroke="#feb195" stroke-width="1.51"/><path d="M1103,8L994,-121L975,-22Z" fill="#fb927b" stroke="#fb927b" stroke-width="1.51"/><path d="M975,-22L994,-121L845,-31Z" fill="#ff997f" stroke="#ff997f" stroke-width="1.51"/><path d="M845,-31L693,-157L705,11Z" fill="#ffa78c" stroke="#ffa78c" stroke-width="1.51"/><path d="M1102,-161L994,-121L1103,8Z" fill="#fa937d" stroke="#fa937d" stroke-width="1.51"/><path d="M359,925L463,916L442,784Z" fill="#da6048" stroke="#da6048" stroke-width="1.51"/><path d="M569,1034L697,1053L702,909Z" fill="#c34431" stroke="#c34431" stroke-width="1.51"/><path d="M852,1053L960,1027L831,919Z" fill="#be2d23" stroke="#be2d23" stroke-width="1.51"/><path d="M1344,789L1356,630L1250,664Z" fill="#cb201e" stroke="#cb201e" stroke-width="1.51"/><path d="M1349,492L1476,375L1365,378Z" fill="#d54834" stroke="#d54834" stroke-width="1.51"/><path d="M1476,375L1372,277L1365,378Z" fill="#d5523c" stroke="#d5523c" stroke-width="1.51"/><path d="M1365,378L1372,277L1221,373Z" fill="#db543d" stroke="#db543d" stroke-width="1.51"/><path d="M994,-121L858,-158L845,-31Z" fill="#ff9e86" stroke="#ff9e86" stroke-width="1.51"/><path d="M858,-158L693,-157L845,-31Z" fill="#ffa68e" stroke="#ffa68e" stroke-width="1.51"/><path d="M466,21L343,-31L314,104Z" fill="#ffbba1" stroke="#ffbba1" stroke-width="1.51"/><path d="M693,-157L573,-126L705,11Z" fill="#ffaf96" stroke="#ffaf96" stroke-width="1.51"/><path d="M192,151L217,243L325,236Z" fill="#fdb093" stroke="#fdb093" stroke-width="1.51"/><path d="M831,919L960,1027L987,897Z" fill="#c82b23" stroke="#c82b23" stroke-width="1.51"/><path d="M852,1053L831,919L697,1053Z" fill="#bf3628" stroke="#bf3628" stroke-width="1.51"/><path d="M72,505L186,503L56,379Z" fill="#ff9d80" stroke="#ff9d80" stroke-width="1.51"/><path d="M224,387L186,503L325,407Z" fill="#fe9576" stroke="#fe9576" stroke-width="1.51"/><path d="M697,1053L831,919L702,909Z" fill="#ca3e2c" stroke="#ca3e2c" stroke-width="1.51"/><path d="M569,1034L702,909L590,882Z" fill="#d04b36" stroke="#d04b36" stroke-width="1.51"/><path d="M1368,-7L1249,-11L1226,99Z" fill="#e67f68" stroke="#e67f68" stroke-width="1.51"/><path d="M1226,99L1249,-11L1103,8Z" fill="#ed816a" stroke="#ed816a" stroke-width="1.51"/><path d="M1116,914L1257,878L1102,787Z" fill="#c41a1c" stroke="#c41a1c" stroke-width="1.51"/><path d="M1255,776L1344,789L1250,664Z" fill="#c81b1d" stroke="#c81b1d" stroke-width="1.51"/><path d="M1255,1034L1257,878L1116,914Z" fill="#b61319" stroke="#b61319" stroke-width="1.51"/><path d="M463,916L569,1034L590,882Z" fill="#cf523c" stroke="#cf523c" stroke-width="1.51"/><path d="M1372,277L1375,144L1228,237Z" fill="#dd654d" stroke="#dd654d" stroke-width="1.51"/><path d="M186,503L192,662L338,536Z" fill="#fc8669" stroke="#fc8669" stroke-width="1.51"/><path d="M342,754L359,925L442,784Z" fill="#e1654d" stroke="#e1654d" stroke-width="1.51"/><path d="M463,916L478,1059L569,1034Z" fill="#c4513d" stroke="#c4513d" stroke-width="1.51"/><path d="M314,104L192,151L325,236Z" fill="#fdb397" stroke="#fdb397" stroke-width="1.51"/><path d="M460,-137L343,-31L466,21Z" fill="#ffbfa7" stroke="#ffbfa7" stroke-width="1.51"/><path d="M1257,878L1344,789L1255,776Z" fill="#bf161a" stroke="#bf161a" stroke-width="1.51"/><path d="M204,778L359,925L342,754Z" fill="#e26d55" stroke="#e26d55" stroke-width="1.51"/><path d="M573,-126L460,-137L466,21Z" fill="#ffbaa3" stroke="#ffbaa3" stroke-width="1.51"/><path d="M693,-157L460,-137L573,-126Z" fill="#ffb8a2" stroke="#ffb8a2" stroke-width="1.51"/><path d="M1235,-109L1102,-161L1103,8Z" fill="#f48f79" stroke="#f48f79" stroke-width="1.51"/><path d="M994,-121L1102,-161L858,-158Z" fill="#ff9b85" stroke="#ff9b85" stroke-width="1.51"/><path d="M858,-158L1102,-161L693,-157Z" fill="#ffa38c" stroke="#ffa38c" stroke-width="1.51"/><path d="M852,1053L1110,1026L960,1027Z" fill="#b4201e" stroke="#b4201e" stroke-width="1.51"/><path d="M960,1027L1110,1026L987,897Z" fill="#bc201d" stroke="#bc201d" stroke-width="1.51"/><path d="M175,-24L192,151L314,104Z" fill="#fdc1a9" stroke="#fdc1a9" stroke-width="1.51"/><path d="M217,243L97,269L224,387Z" fill="#fea98d" stroke="#fea98d" stroke-width="1.51"/><path d="M1492,524L1349,492L1356,630Z" fill="#d03327" stroke="#d03327" stroke-width="1.51"/><path d="M1492,524L1476,375L1349,492Z" fill="#d0402d" stroke="#d0402d" stroke-width="1.51"/><path d="M1372,277L1521,266L1375,144Z" fill="#d5614a" stroke="#d5614a" stroke-width="1.51"/><path d="M192,662L204,778L342,754Z" fill="#ed775e" stroke="#ed775e" stroke-width="1.51"/><path d="M1249,-11L1235,-109L1103,8Z" fill="#ef8973" stroke="#ef8973" stroke-width="1.51"/><path d="M1368,-7L1235,-109L1249,-11Z" fill="#e88671" stroke="#e88671" stroke-width="1.51"/><path d="M1514,625L1492,524L1356,630Z" fill="#ca2b22" stroke="#ca2b22" stroke-width="1.51"/><path d="M569,1034L478,1059L697,1053Z" fill="#b94736" stroke="#b94736" stroke-width="1.51"/><path d="M697,1053L478,1059L852,1053Z" fill="#b83f2f" stroke="#b83f2f" stroke-width="1.51"/><path d="M358,1005L478,1059L463,916Z" fill="#c65844" stroke="#c65844" stroke-width="1.51"/><path d="M358,1005L463,916L359,925Z" fill="#d05f48" stroke="#d05f48" stroke-width="1.51"/><path d="M1375,144L1368,-7L1226,99Z" fill="#e17860" stroke="#e17860" stroke-width="1.51"/><path d="M1477,118L1368,-7L1375,144Z" fill="#da745d" stroke="#da745d" stroke-width="1.51"/><path d="M192,151L97,269L217,243Z" fill="#feb499" stroke="#feb499" stroke-width="1.51"/><path d="M186,503L79,620L192,662Z" fill="#fc8a6e" stroke="#fc8a6e" stroke-width="1.51"/><path d="M192,662L60,780L204,778Z" fill="#ee7e66" stroke="#ee7e66" stroke-width="1.51"/><path d="M181,1015L358,1005L359,925Z" fill="#ca6550" stroke="#ca6550" stroke-width="1.51"/><path d="M56,379L186,503L224,387Z" fill="#ff9d80" stroke="#ff9d80" stroke-width="1.51"/><path d="M1523,751L1514,625L1356,630Z" fill="#c1201e" stroke="#c1201e" stroke-width="1.51"/><path d="M1257,878L1380,878L1344,789Z" fill="#b81419" stroke="#b81419" stroke-width="1.51"/><path d="M1371,1026L1380,878L1257,878Z" fill="#ae1117" stroke="#ae1117" stroke-width="1.51"/><path d="M192,151L83,108L97,269Z" fill="#febea4" stroke="#febea4" stroke-width="1.51"/><path d="M343,-31L175,-24L314,104Z" fill="#fec4ad" stroke="#fec4ad" stroke-width="1.51"/><path d="M460,-137L344,-142L343,-31Z" fill="#ffc6b0" stroke="#ffc6b0" stroke-width="1.51"/><path d="M693,-157L344,-142L460,-137Z" fill="#ffbfa9" stroke="#ffbfa9" stroke-width="1.51"/><path d="M1523,751L1356,630L1344,789Z" fill="#c01b1c" stroke="#c01b1c" stroke-width="1.51"/><path d="M1601,371L1521,266L1476,375Z" fill="#c54e3a" stroke="#c54e3a" stroke-width="1.51"/><path d="M1601,371L1476,375L1492,524Z" fill="#c64331" stroke="#c64331" stroke-width="1.51"/><path d="M1476,375L1521,266L1372,277Z" fill="#d0563f" stroke="#d0563f" stroke-width="1.51"/><path d="M72,505L79,620L186,503Z" fill="#ff9477" stroke="#ff9477" stroke-width="1.51"/><path d="M204,778L183,884L359,925Z" fill="#dd7058" stroke="#dd7058" stroke-width="1.51"/><path d="M97,269L56,379L224,387Z" fill="#ffa98d" stroke="#ffa98d" stroke-width="1.51"/><path d="M-36,633L60,780L79,620Z" fill="#f78c74" stroke="#f78c74" stroke-width="1.51"/><path d="M1521,266L1477,118L1375,144Z" fill="#d36750" stroke="#d36750" stroke-width="1.51"/><path d="M1110,1026L1255,1034L1116,914Z" fill="#b01419" stroke="#b01419" stroke-width="1.51"/><path d="M852,1053L1255,1034L1110,1026Z" fill="#ad191b" stroke="#ad191b" stroke-width="1.51"/><path d="M60,780L183,884L204,778Z" fill="#e57a63" stroke="#e57a63" stroke-width="1.51"/><path d="M192,-135L175,-24L343,-31Z" fill="#fecfbb" stroke="#fecfbb" stroke-width="1.51"/><path d="M-64,246L-67,393L56,379Z" fill="#ffb49b" stroke="#ffb49b" stroke-width="1.51"/><path d="M175,-24L83,108L192,151Z" fill="#fdc7b0" stroke="#fdc7b0" stroke-width="1.51"/><path d="M1648,505L1601,371L1492,524Z" fill="#bd3a2b" stroke="#bd3a2b" stroke-width="1.51"/><path d="M1474,892L1523,751L1344,789Z" fill="#b31218" stroke="#b31218" stroke-width="1.51"/><path d="M1474,892L1344,789L1380,878Z" fill="#b21318" stroke="#b21318" stroke-width="1.51"/><path d="M1614,625L1492,524L1514,625Z" fill="#be2720" stroke="#be2720" stroke-width="1.51"/><path d="M1601,105L1498,17L1477,118Z" fill="#cb6f5c" stroke="#cb6f5c" stroke-width="1.51"/><path d="M1601,105L1477,118L1521,266Z" fill="#c86550" stroke="#c86550" stroke-width="1.51"/><path d="M1477,118L1498,17L1368,-7Z" fill="#d77863" stroke="#d77863" stroke-width="1.51"/><path d="M1368,-7L1372,-156L1235,-109Z" fill="#e58875" stroke="#e58875" stroke-width="1.51"/><path d="M1371,1026L1474,892L1380,878Z" fill="#a80f15" stroke="#a80f15" stroke-width="1.51"/><path d="M-36,633L79,620L72,505Z" fill="#ff947a" stroke="#ff947a" stroke-width="1.51"/><path d="M79,620L60,780L192,662Z" fill="#f5866d" stroke="#f5866d" stroke-width="1.51"/><path d="M1235,-109L1372,-156L1102,-161Z" fill="#ee8e7b" stroke="#ee8e7b" stroke-width="1.51"/><path d="M1490,-115L1372,-156L1368,-7Z" fill="#de8573" stroke="#de8573" stroke-width="1.51"/><path d="M1255,1034L1371,1026L1257,878Z" fill="#a81016" stroke="#a81016" stroke-width="1.51"/><path d="M1601,371L1610,282L1521,266Z" fill="#c0503c" stroke="#c0503c" stroke-width="1.51"/><path d="M175,-24L60,23L83,108Z" fill="#fecfbb" stroke="#fecfbb" stroke-width="1.51"/><path d="M344,-142L192,-135L343,-31Z" fill="#ffcdb9" stroke="#ffcdb9" stroke-width="1.51"/><path d="M1610,772L1614,625L1523,751Z" fill="#ac1619" stroke="#ac1619" stroke-width="1.51"/><path d="M1523,751L1614,625L1514,625Z" fill="#b51d1c" stroke="#b51d1c" stroke-width="1.51"/><path d="M1601,371L1731,244L1610,282Z" fill="#b64e3c" stroke="#b64e3c" stroke-width="1.51"/><path d="M93,-141L60,23L175,-24Z" fill="#fed7c7" stroke="#fed7c7" stroke-width="1.51"/><path d="M-67,393L-56,495L56,379Z" fill="#ffab91" stroke="#ffab91" stroke-width="1.51"/><path d="M85,928L181,1015L183,884Z" fill="#d5745f" stroke="#d5745f" stroke-width="1.51"/><path d="M183,884L181,1015L359,925Z" fill="#d36d57" stroke="#d36d57" stroke-width="1.51"/><path d="M358,1005L181,1015L478,1059Z" fill="#c15f4a" stroke="#c15f4a" stroke-width="1.51"/><path d="M1614,625L1648,505L1492,524Z" fill="#b92d23" stroke="#b92d23" stroke-width="1.51"/><path d="M56,379L-56,495L72,505Z" fill="#ffa488" stroke="#ffa488" stroke-width="1.51"/><path d="M56,379L97,269L-64,246Z" fill="#ffb59c" stroke="#ffb59c" stroke-width="1.51"/><path d="M-56,495L-36,633L72,505Z" fill="#ff9d82" stroke="#ff9d82" stroke-width="1.51"/><path d="M60,780L85,928L183,884Z" fill="#e07b65" stroke="#e07b65" stroke-width="1.51"/><path d="M1610,282L1601,105L1521,266Z" fill="#c15c48" stroke="#c15c48" stroke-width="1.51"/><path d="M1498,17L1490,-115L1368,-7Z" fill="#d9816e" stroke="#d9816e" stroke-width="1.51"/><path d="M1731,244L1601,105L1610,282Z" fill="#b75947" stroke="#b75947" stroke-width="1.51"/><path d="M-64,246L97,269L-38,142Z" fill="#ffc2aa" stroke="#ffc2aa" stroke-width="1.51"/><path d="M-60,904L85,928L60,780Z" fill="#e1816c" stroke="#e1816c" stroke-width="1.51"/><path d="M1780,619L1756,496L1648,505Z" fill="#ab2b22" stroke="#ab2b22" stroke-width="1.51"/><path d="M1474,892L1610,772L1523,751Z" fill="#a90f17" stroke="#a90f17" stroke-width="1.51"/><path d="M1604,917L1610,772L1474,892Z" fill="#9f0c15" stroke="#9f0c15" stroke-width="1.51"/><path d="M1654,-21L1490,-115L1498,17Z" fill="#cb7b6b" stroke="#cb7b6b" stroke-width="1.51"/><path d="M-38,142L97,269L83,108Z" fill="#fec3ac" stroke="#fec3ac" stroke-width="1.51"/><path d="M60,23L-38,142L83,108Z" fill="#feceba" stroke="#feceba" stroke-width="1.51"/><path d="M60,23L-83,13L-38,142Z" fill="#fed5c4" stroke="#fed5c4" stroke-width="1.51"/><path d="M192,-135L93,-141L175,-24Z" fill="#ffd7c7" stroke="#ffd7c7" stroke-width="1.51"/><path d="M344,-142L93,-141L192,-135Z" fill="#ffd6c5" stroke="#ffd6c5" stroke-width="1.51"/><path d="M693,-157L93,-141L344,-142Z" fill="#ffc9b5" stroke="#ffc9b5" stroke-width="1.51"/><path d="M-36,633L-63,751L60,780Z" fill="#f48c76" stroke="#f48c76" stroke-width="1.51"/><path d="M-191,624L-63,751L-36,633Z" fill="#fb957e" stroke="#fb957e" stroke-width="1.51"/><path d="M-161,540L-36,633L-56,495Z" fill="#ff9e86" stroke="#ff9e86" stroke-width="1.51"/><path d="M1371,1026L1491,1055L1474,892Z" fill="#9a0b14" stroke="#9a0b14" stroke-width="1.51"/><path d="M1255,1034L1491,1055L1371,1026Z" fill="#970a14" stroke="#970a14" stroke-width="1.51"/><path d="M852,1053L1491,1055L1255,1034Z" fill="#a20d16" stroke="#a20d16" stroke-width="1.51"/><path d="M478,1059L1491,1055L852,1053Z" fill="#b2231f" stroke="#b2231f" stroke-width="1.51"/><path d="M85,928L92,1042L181,1015Z" fill="#ca7260" stroke="#ca7260" stroke-width="1.51"/><path d="M181,1015L92,1042L478,1059Z" fill="#be6553" stroke="#be6553" stroke-width="1.51"/><path d="M-67,1057L92,1042L85,928Z" fill="#c97867" stroke="#c97867" stroke-width="1.51"/><path d="M1780,386L1601,371L1648,505Z" fill="#b13d2e" stroke="#b13d2e" stroke-width="1.51"/><path d="M1491,1055L1604,917L1474,892Z" fill="#980b14" stroke="#980b14" stroke-width="1.51"/><path d="M1601,105L1654,-21L1498,17Z" fill="#c47261" stroke="#c47261" stroke-width="1.51"/><path d="M1780,386L1731,244L1601,371Z" fill="#b04737" stroke="#b04737" stroke-width="1.51"/><path d="M1648,505L1614,625L1780,619Z" fill="#ab241f" stroke="#ab241f" stroke-width="1.51"/><path d="M1780,619L1614,625L1773,781Z" fill="#a2171a" stroke="#a2171a" stroke-width="1.51"/><path d="M-172,412L-67,393L-165,245Z" fill="#ffb8a0" stroke="#ffb8a0" stroke-width="1.51"/><path d="M-172,412L-56,495L-67,393Z" fill="#ffad93" stroke="#ffad93" stroke-width="1.51"/><path d="M-172,412L-161,540L-56,495Z" fill="#ffa990" stroke="#ffa990" stroke-width="1.51"/><path d="M1730,15L1654,-21L1601,105Z" fill="#b96d5f" stroke="#b96d5f" stroke-width="1.51"/><path d="M-165,245L-67,393L-64,246Z" fill="#ffbca5" stroke="#ffbca5" stroke-width="1.51"/><path d="M-165,245L-64,246L-166,118Z" fill="#ffcab5" stroke="#ffcab5" stroke-width="1.51"/><path d="M-83,-116L-83,13L60,23Z" fill="#fee0d2" stroke="#fee0d2" stroke-width="1.51"/><path d="M-176,786L-60,904L-63,751Z" fill="#eb8b77" stroke="#eb8b77" stroke-width="1.51"/><path d="M-63,751L-60,904L60,780Z" fill="#e98772" stroke="#e98772" stroke-width="1.51"/><path d="M-166,118L-64,246L-38,142Z" fill="#ffccb8" stroke="#ffccb8" stroke-width="1.51"/><path d="M1756,496L1780,386L1648,505Z" fill="#ae3629" stroke="#ae3629" stroke-width="1.51"/><path d="M1731,244L1747,100L1601,105Z" fill="#b25f4f" stroke="#b25f4f" stroke-width="1.51"/><path d="M1773,781L1614,625L1610,772Z" fill="#a01218" stroke="#a01218" stroke-width="1.51"/><path d="M1756,496L1780,619L1780,386Z" fill="#ad3126" stroke="#ad3126" stroke-width="1.51"/><path d="M1654,-21L1613,-147L1490,-115Z" fill="#c77d6f" stroke="#c77d6f" stroke-width="1.51"/><path d="M1490,-115L1613,-147L1372,-156Z" fill="#d68575" stroke="#d68575" stroke-width="1.51"/><path d="M1654,-21L1753,-150L1613,-147Z" fill="#bb796e" stroke="#bb796e" stroke-width="1.51"/><path d="M1780,386L1747,100L1731,244Z" fill="#b15342" stroke="#b15342" stroke-width="1.51"/><path d="M-161,540L-191,624L-36,633Z" fill="#ff9c84" stroke="#ff9c84" stroke-width="1.51"/><path d="M-172,412L-191,624L-161,540Z" fill="#ffa68e" stroke="#ffa68e" stroke-width="1.51"/><path d="M-192,14L-191,624L-172,412Z" fill="#ffbaa4" stroke="#ffbaa4" stroke-width="1.51"/><path d="M1761,904L1773,781L1610,772Z" fill="#920815" stroke="#920815" stroke-width="1.51"/><path d="M1491,1055L1618,1022L1604,917Z" fill="#890712" stroke="#890712" stroke-width="1.51"/><path d="M-165,245L-192,14L-172,412Z" fill="#ffc9b5" stroke="#ffc9b5" stroke-width="1.51"/><path d="M-83,13L-166,118L-38,142Z" fill="#ffd5c4" stroke="#ffd5c4" stroke-width="1.51"/><path d="M1747,100L1730,15L1601,105Z" fill="#b46859" stroke="#b46859" stroke-width="1.51"/><path d="M1761,904L1610,772L1604,917Z" fill="#920814" stroke="#920814" stroke-width="1.51"/><path d="M-191,624L-176,786L-63,751Z" fill="#f6937e" stroke="#f6937e" stroke-width="1.51"/><path d="M-83,13L-192,14L-166,118Z" fill="#ffdccd" stroke="#ffdccd" stroke-width="1.51"/><path d="M93,-141L-83,-116L60,23Z" fill="#fee0d2" stroke="#fee0d2" stroke-width="1.51"/><path d="M-60,904L-67,1057L85,928Z" fill="#d37f6d" stroke="#d37f6d" stroke-width="1.51"/><path d="M92,1042L-67,1057L478,1059Z" fill="#bd6a59" stroke="#bd6a59" stroke-width="1.51"/><path d="M-168,918L-67,1057L-60,904Z" fill="#d68372" stroke="#d68372" stroke-width="1.51"/><path d="M1618,1022L1761,904L1604,917Z" fill="#870612" stroke="#870612" stroke-width="1.51"/><path d="M-166,118L-192,14L-165,245Z" fill="#ffd4c3" stroke="#ffd4c3" stroke-width="1.51"/><path d="M-83,-116L-192,14L-83,13Z" fill="#ffe4d8" stroke="#ffe4d8" stroke-width="1.51"/><path d="M-195,1010L-168,918L-176,786Z" fill="#e08a78" stroke="#e08a78" stroke-width="1.51"/><path d="M-176,786L-168,918L-60,904Z" fill="#e38976" stroke="#e38976" stroke-width="1.51"/><path d="M1747,100L1753,-150L1730,15Z" fill="#b67164" stroke="#b67164" stroke-width="1.51"/><path d="M1730,15L1753,-150L1654,-21Z" fill="#b77569" stroke="#b77569" stroke-width="1.51"/><path d="M1613,-147L1753,-150L1372,-156Z" fill="#c98174" stroke="#c98174" stroke-width="1.51"/><path d="M1372,-156L1753,-150L1102,-161Z" fill="#df8978" stroke="#df8978" stroke-width="1.51"/><path d="M1780,386L1753,-150L1747,100Z" fill="#b26353" stroke="#b26353" stroke-width="1.51"/><path d="M1618,1022L1759,1032L1761,904Z" fill="#7c0411" stroke="#7c0411" stroke-width="1.51"/><path d="M1761,904L1759,1032L1773,781Z" fill="#890712" stroke="#890712" stroke-width="1.51"/><path d="M1491,1055L1759,1032L1618,1022Z" fill="#7b0311" stroke="#7b0311" stroke-width="1.51"/><path d="M-168,918L-195,1010L-67,1057Z" fill="#cf8273" stroke="#cf8273" stroke-width="1.51"/><path d="M-191,624L-195,1010L-176,786Z" fill="#ec8e7c" stroke="#ec8e7c" stroke-width="1.51"/><path d="M-195,-146L-195,1010L-191,624Z" fill="#ffaa92" stroke="#ffaa92" stroke-width="1.51"/><path d="M-83,-116L-195,-146L-192,14Z" fill="#ffe9df" stroke="#ffe9df" stroke-width="1.51"/><path d="M-192,14L-195,-146L-191,624Z" fill="#ffd1bf" stroke="#ffd1bf" stroke-width="1.51"/><path d="M93,-141L-195,-146L-83,-116Z" fill="#ffe9de" stroke="#ffe9de" stroke-width="1.51"/><path d="M693,-157L-195,-146L93,-141Z" fill="#ffd7c7" stroke="#ffd7c7" stroke-width="1.51"/></svg>